<?xml version="1.0" encoding="utf-8"?>
<!-- Generator: Adobe Illustrator 27.0.0, SVG Export Plug-In . SVG Version: 6.00 Build 0)  -->
<svg version="1.1" id="Layer_1" xmlns="http://www.w3.org/2000/svg" xmlns:xlink="http://www.w3.org/1999/xlink" x="0px" y="0px"
	 viewBox="0 0 32 32" style="enable-background:new 0 0 32 32;" xml:space="preserve">
<style type="text/css">
	.st0{fill:#F6921E;}
	.st1{fill:#0071BB;}
</style>
<g>
	<path class="st0" d="M16.2,29.6c0.6,0.1,1.1,0.2,1.7,0.3v-9.4l-1.7,1V29.6z"/>
	<path class="st0" d="M20.3,30c0.6,0,1.1,0,1.7-0.1V15.3l-1.7,1V30z"/>
	<g>
		<polygon class="st1" points="29.9,28 29.3,28 29.3,11 27.2,9.5 24.6,11.1 24.3,10.7 27.2,8.8 29.9,10.7 		"/>
	</g>
	<path class="st1" d="M23.7,14.4v0.7l-1.6-1.3l-2.5,1.5V30c-0.2,0-0.4,0-0.5,0V15l3-1.9L23.7,14.4z"/>
	<g>
		<path class="st1" d="M18.7,19v0.7l-0.6-0.4L16,20.5v9c-0.2,0-0.4-0.1-0.5-0.1v-9.2l2.7-1.5L18.7,19z"/>
		<polygon class="st1" points="19.6,19.8 19.3,20.2 19.2,20.1 19.2,19.4 		"/>
	</g>
	<path class="st1" d="M26.5,8.5L20.7,2c0,0-10.3,7.6-5.8,18.5c0-0.3-3.3-10.8,6.7-16C21.9,4.5,26.5,8.5,26.5,8.5z"/>
	<path class="st1" d="M25.1,29.6c-0.3,0.1-0.6,0.1-0.8,0.1c-0.8,0.1-1.5,0.2-2.2,0.3c-0.6,0-1.2,0.1-1.7,0.1c-0.2,0-0.4,0-0.6,0
		c-0.2,0-0.4,0-0.5,0c-0.4,0-0.9-0.1-1.3-0.1c-0.6-0.1-1.2-0.2-1.7-0.3c-0.1,0-0.2,0-0.2-0.1c-0.2,0-0.4-0.1-0.5-0.1
		C3.8,26,2.1,11.2,2.1,11.2l5.5-0.7L8,12.6c0,0-3.1,0-3.4,0c2.1,9.7,6.5,14.2,10.9,16c0.2,0.1,0.4,0.1,0.5,0.2
		c0.1,0,0.2,0.1,0.2,0.1c0.6,0.2,1.1,0.4,1.7,0.5c0.4,0.1,0.9,0.2,1.3,0.2c0.2,0,0.4,0,0.5,0.1c0.2,0,0.4,0,0.6,0.1
		c0.6,0,1.2,0.1,1.7,0.1c0.8,0,1.5-0.1,2.2-0.2c0.2,0,0.3,0,0.5-0.1c0,0,0,0,0.1,0C24.9,29.6,25,29.6,25.1,29.6z"/>
	<path class="st0" d="M24.3,12.1v17.7c0.3,0,0.6-0.1,0.8-0.1c-0.1,0-0.2,0-0.3,0c0.2,0,0.4-0.1,0.6-0.1c-0.1,0-0.2,0-0.3,0.1
		c0.4-0.1,0.8-0.1,1.1-0.2c0,0,0,0,0,0c0.1,0,0.3-0.1,0.4-0.1V10.4L24.3,12.1z"/>
	<path class="st0" d="M15.5,6.4l1-2.1L12.1,2c-9.3,13.4,2.4,23.3,2.4,23.3C5.2,14,13.1,5,13.1,5L15.5,6.4z"/>
</g>
</svg>
