<?xml version="1.0" encoding="utf-8"?>
<!-- Generator: Adobe Illustrator 27.0.0, SVG Export Plug-In . SVG Version: 6.00 Build 0)  -->
<svg version="1.1" id="Layer_1" xmlns="http://www.w3.org/2000/svg" xmlns:xlink="http://www.w3.org/1999/xlink" x="0px" y="0px"
	 viewBox="0 0 80 80" style="enable-background:new 0 0 80 80;" xml:space="preserve">
<style type="text/css">
	.st0{fill:#F6921E;}
	.st1{fill:#0071BB;}
</style>
<g>
	<path class="st0" d="M40.5,75c1.4,0.3,2.9,0.6,4.4,0.8V51.6l-4.4,2.7V75z"/>
	<path class="st0" d="M51.2,76.2c1.4,0,2.9,0,4.4-0.1V38.3L51.2,41V76.2z"/>
	<g>
		<polygon class="st1" points="75.8,71.1 74.4,71.1 74.4,27.1 68.8,23.2 62.2,27.4 61.4,26.2 68.9,21.5 75.8,26.4 		"/>
	</g>
	<path class="st1" d="M60,35.8v1.8l-4-3.3l-6.3,4v38c-0.5,0-0.9,0-1.4-0.1V37.5l7.8-4.9L60,35.8z"/>
	<g>
		<path class="st1" d="M46.9,47.8v1.7l-1.5-1.2l-5.5,3.1v23.3c-0.5-0.1-0.9-0.2-1.4-0.4V50.7l6.9-4L46.9,47.8z"/>
		<polygon class="st1" points="49.4,49.7 48.5,50.8 48.3,50.6 48.3,48.9 		"/>
	</g>
	<path class="st1" d="M67.1,20.6L52,3.8c0,0-26.6,19.5-15.1,47.8c0-0.9-8.4-27.9,17.3-41.2C55.1,10.4,67.1,20.6,67.1,20.6z"/>
	<path class="st1" d="M63.5,75.1c-0.7,0.1-1.5,0.3-2.2,0.4c-2,0.3-3.9,0.5-5.8,0.7c-1.5,0.1-3,0.2-4.4,0.1c-0.5,0-1,0-1.5,0
		c-0.5,0-0.9,0-1.4-0.1c-1.1-0.1-2.2-0.2-3.3-0.3c-1.5-0.2-3-0.5-4.4-0.8c-0.2-0.1-0.4-0.1-0.6-0.2c-0.5-0.1-0.9-0.2-1.4-0.4
		C8.5,65.7,4.2,27.7,4.2,27.7l14.2-1.8l0.9,5.3c0,0-8,0-8.9,0c5.4,25,16.7,36.5,28.1,41.4c0.5,0.2,0.9,0.4,1.4,0.6
		c0.2,0.1,0.4,0.2,0.6,0.2c1.5,0.5,3,1,4.4,1.3c1.1,0.3,2.2,0.5,3.3,0.6c0.5,0.1,0.9,0.1,1.4,0.2c0.5,0.1,1,0.1,1.5,0.1
		c1.5,0.1,3,0.2,4.4,0.1c2,0,4-0.2,5.8-0.4c0.4-0.1,0.9-0.1,1.3-0.2c0.1,0,0.1,0,0.2,0C63,75.1,63.3,75.1,63.5,75.1z"/>
	<path class="st0" d="M61.3,29.9v45.5c0.7-0.1,1.4-0.2,2.2-0.4c-0.2,0-0.5,0.1-0.7,0.1c0.4-0.1,0.9-0.2,1.5-0.3
		C64,75,63.8,75,63.5,75c1-0.2,2-0.4,2.9-0.6c0,0,0,0,0,0c0.4-0.1,0.7-0.2,1.1-0.2V25.5L61.3,29.9z"/>
	<path class="st0" d="M38.8,15.3l2.7-5.3L29.9,3.8C6,38.3,36.1,64,36.1,64c-23.9-29.2-3.5-52.2-3.5-52.2L38.8,15.3z"/>
</g>
</svg>
