<?xml version="1.0" encoding="utf-8"?>
<!-- Generator: Adobe Illustrator 27.0.0, SVG Export Plug-In . SVG Version: 6.00 Build 0)  -->
<svg version="1.1" id="Layer_1" xmlns="http://www.w3.org/2000/svg" xmlns:xlink="http://www.w3.org/1999/xlink" x="0px" y="0px"
	 viewBox="0 0 140 140" style="enable-background:new 0 0 140 140;" xml:space="preserve">
<style type="text/css">
	.st0{fill:#020202;}
</style>
<g>
	<path class="st0" d="M138.5,117.2c-0.4,0.2-0.4,0.7-0.5,1c-1.6,5.2-5.7,8.4-11.1,8.7c-0.4,0-0.9,0-1.3,0c-37,0-74,0-111,0
		c-4.3,0-7.8-1.4-10.5-4.8c-1.7-2.2-2.5-4.7-2.5-7.5c0-7.1-0.1-14.3,0-21.4c0.1-10.7,8.3-19.3,18.9-19.8C26,73,31.7,73,37.3,73.4
		c1,0.1,1.9,0.3,3,0.5c1-1.7,2-3.3,3.4-4.7c3.9-3.9,8.5-6.1,14-6.2c8.3-0.1,16.7-0.2,25,0c7.2,0.2,12.6,3.7,16.4,9.8
		c0.2,0.3,0.4,0.7,0.6,1.1c6.1-1.1,12.3-0.6,18.5-0.6c9.8,0,17.7,6.5,19.9,16c0.1,0.5-0.1,1.2,0.4,1.6
		C138.5,99.7,138.5,108.4,138.5,117.2z M46.1,118.8c16,0,31.8,0,47.7,0c0-0.2,0-0.4,0-0.6c0-11.7,0.1-23.3,0-35
		c-0.1-7.2-5.2-12.2-12.4-12.2c-7.6-0.1-15.2,0-22.9,0c-2,0-3.9,0.3-5.7,1.2c-4.6,2.4-6.8,6.3-6.8,11.5c0,11.3,0,22.5,0,33.8
		C46.1,117.9,46.1,118.3,46.1,118.8z M38.1,81.8c-1.1-0.3-2.2-0.5-3.3-0.5c-4.2,0-8.5,0-12.7,0c-1.1,0-2.2,0.1-3.3,0.4
		c-5.8,1.6-9.2,6.1-9.2,12.1c0,6.7,0,13.5,0,20.2c0,3.3,1.5,4.8,4.8,4.8c7.5,0,15,0,22.5,0c0.4,0,0.8,0,1.2-0.1
		C38.1,106.4,38.1,94.2,38.1,81.8z M102,118.8c8.4,0,16.6,0,24.9,0c2.1,0,3.6-1.8,3.7-4c0-7.2,0.1-14.3,0-21.5
		c-0.1-6.4-4.5-11.2-10.8-11.8c-5.2-0.5-10.5-0.2-15.8-0.1c-0.6,0-1.3,0-1.9,0.4C102,94.1,102,106.4,102,118.8z"/>
	<path class="st0" d="M70,13.1c13.1,0,23.8,10.7,23.8,23.8c0,13.1-10.7,23.8-23.8,23.9c-13.1,0-23.9-10.8-23.9-24
		C46.2,23.7,56.9,13.1,70,13.1z M70,21.1c-8.7,0-15.8,7.1-15.8,15.9c0,8.7,7.1,15.8,15.7,15.8c8.7,0,15.8-7.1,15.8-15.8
		C85.8,28.2,78.7,21.1,70,21.1z"/>
	<path class="st0" d="M28.2,35.3c9.8-0.1,17.9,8,17.9,17.8c0,9.7-7.9,17.8-17.7,17.9c-9.7,0.1-17.8-7.8-18-17.8
		C10.3,43.5,18.3,35.4,28.2,35.3z M28.4,43.3c-5.3-0.2-9.9,4.3-10,9.7c-0.1,5.3,4.3,9.8,9.7,9.9c5.2,0.1,9.7-4.3,9.9-9.7
		C38.3,48,33.9,43.5,28.4,43.3z"/>
	<path class="st0" d="M129.6,52.9c0.3,9.6-7.7,17.8-17.5,18.1c-9.7,0.3-17.8-7.6-18.1-17.6c-0.3-9.7,7.6-17.8,17.6-18.1
		C121.2,35,129.3,42.9,129.6,52.9z M111.8,43.3c-5.3,0-9.7,4.4-9.8,9.7c-0.1,5.3,4.5,9.9,9.9,9.9c5.3-0.1,9.8-4.5,9.8-9.8
		C121.5,47.8,117.1,43.4,111.8,43.3z"/>
</g>
</svg>
