<?xml version="1.0" encoding="utf-8"?>
<!-- Generator: Adobe Illustrator 27.0.0, SVG Export Plug-In . SVG Version: 6.00 Build 0)  -->
<svg version="1.1" id="Layer_1" xmlns="http://www.w3.org/2000/svg" xmlns:xlink="http://www.w3.org/1999/xlink" x="0px" y="0px"
	 viewBox="0 0 140 140" style="enable-background:new 0 0 140 140;" xml:space="preserve">
<style type="text/css">
	.st0{fill:#080606;}
	.st1{fill:#F56B81;}
	.st2{fill:#FACB55;}
	.st3{fill:#899CF5;}
	.st4{fill:#E85463;}
</style>
<g>
	<path class="st0" d="M133.9,62.9c0,16.4,0,32.8,0,49.1c0,6.3-3.6,11-9.3,12.3c-2.4,0.6-4.9,0.3-7.3,0.3c-0.8,0-1.4,0.2-2.1,0.7
		c-2.3,1.9-5.2,2.3-8,2.7c-12,1.8-24,3.5-36,5.3c-12.3,1.8-24.5,3.7-36.8,5.4c-7.1,1-12.8-3.6-13.8-10.7
		c-2.2-15.2-4.5-30.4-6.7-45.6c-2-13.7-4-27.4-6-41.2c-0.6-3.8-1.3-7.6-1.7-11.4c-0.7-7.2,3.8-12.7,11-13.6
		c5.2-0.7,10.4-1.5,15.6-2.2c0.9-0.1,0.8-0.7,0.8-1.3C34,7.2,37.1,3.1,42,1.5C43.3,1.1,44.6,1,45.9,1c25.3,0,50.5,0,75.8,0
		c6.8,0,11.8,4.7,12.2,11.5c0.1,1.6,0,3.2,0,4.8C133.9,32.5,133.9,47.7,133.9,62.9C133.9,62.9,133.9,62.9,133.9,62.9z M35.8,62.7
		c0,16.3,0,32.7,0,49c0,6.8,4,10.8,10.7,10.8c24.8,0,49.7,0,74.5,0c6.7,0,10.7-4.1,10.7-10.7c0-32.7,0-65.3,0-98
		c0-6.7-4-10.7-10.7-10.7c-24.9,0-49.8,0-74.7,0c-6.6,0-10.6,4.1-10.6,10.7C35.8,30.1,35.8,46.4,35.8,62.7z M111.6,124.8
		c-0.6,0-1.1,0-1.7,0c-21.1,0-42.2,0-63.2,0c-2,0-4-0.2-5.8-1c-5-2.4-7.3-6.4-7.2-11.9c0-31.3,0-62.5,0-93.8c0-0.6,0.2-1.3-0.3-1.9
		c-5.6,0.8-11.3,1.7-16.9,2.5c-0.1,0-0.3,0-0.4,0.1c-5.2,1-8.6,6-7.8,11.2c2.2,14.9,4.4,29.8,6.6,44.7c2.7,18,5.3,36,8,54
		c0.8,5.4,5.8,9.1,11.2,8.2c9.8-1.4,19.5-2.9,29.3-4.3c14.3-2.1,28.6-4.2,43-6.3C108.1,125.9,109.9,125.8,111.6,124.8z"/>
	<path class="st1" d="M111.6,124.8c-1.7,1.1-3.5,1.1-5.3,1.4c-14.3,2.1-28.6,4.2-43,6.3c-9.8,1.4-19.5,2.9-29.3,4.3
		c-5.4,0.8-10.4-2.8-11.2-8.2c-2.7-18-5.3-36-8-54c-2.2-14.9-4.4-29.8-6.6-44.7c-0.8-5.2,2.6-10.2,7.8-11.2c0.1,0,0.3,0,0.4-0.1
		c5.6-0.8,11.2-1.7,16.9-2.5c0.4,0.6,0.3,1.3,0.3,1.9c0,31.3,0,62.5,0,93.8c0,5.5,2.2,9.5,7.2,11.9c1.8,0.9,3.8,1,5.8,1
		c21.1,0,42.2,0,63.2,0C110.5,124.8,111,124.8,111.6,124.8z"/>
	<path class="st0" d="M76.3,46.9c5.2-1.2,9,0.3,11,4.1c2,3.8,1.1,7.8-2.6,11.4c1,1.8,2,3.6,2.9,5.4c0.8,1.6,0.4,3.4-0.9,4.5
		c-1.2,1-3,1.2-4.3,0.3c-0.2-0.1-0.5-0.3-0.7-0.5c-0.8-1.5-2.1-1.4-3.5-1.5c-4.7-0.3-9.2,0.6-14,1.6c0.7,1,1.3,2,1.9,2.9
		c1.8,2.7,1.7,3.4-0.6,5.5c1,1.6,2,3.2,2.9,4.7c1.4,2.4,0.9,4.9-1.3,6.1c-2.2,1.2-4.7,0.3-5.8-2.2c-1.6-3.3-3.1-6.6-4.7-9.9
		c-0.5-1.1-1.1-1.8-2.3-2.4c-1.2-0.6-2-0.7-3.3-0.5c-2.4,0.5-4.6-0.9-5.7-3.2c-1-2.2-0.5-4.8,1.3-6.3c0.7-0.5,0.9-1,0.8-1.9
		c-0.2-1.5,0.5-2.8,1.7-3.6c1.5-0.9,3-1.7,4.6-2.5c0.3-0.1,0.7-0.3,0.9-0.2c2.2,0.6,3.2-1,4.4-2.3c2.9-3,5.6-6.1,7.4-9.9
		c0.3-0.6,0.4-1.1,0.1-1.8c-0.7-1.9,0.1-3.8,1.8-4.6c1.7-0.8,3.7-0.3,4.8,1.5C74.4,43.3,75.3,45.1,76.3,46.9z M79.6,68.5
		c-3.8-7-7.5-13.7-11.2-20.6c-2.3,4.4-5.5,7.9-8.8,11.3c-0.6,0.6-0.7,1-0.3,1.8c1.5,2.6,3,5.3,4.4,8c0.4,0.8,0.8,0.9,1.6,0.7
		C69.9,68.8,74.6,67.9,79.6,68.5z M55.5,60.7c-0.1,0-0.4,0-0.5,0.1c-1.5,0.8-3.1,1.6-4.6,2.5c-0.9,0.6-1,1.6-0.5,2.6
		c1.5,2.7,3,5.4,4.4,8.2c0.6,1.2,1.7,1.5,2.8,1c1.3-0.6,2.5-1.3,3.7-2c1.2-0.7,1.5-1.7,0.8-2.9c-1.5-2.8-3-5.6-4.5-8.4
		C56.9,61.1,56.3,60.8,55.5,60.7z M85.9,69.5c-0.1-0.7-0.3-1.1-0.6-1.5c-4.4-8.2-8.9-16.3-13.3-24.5c-0.2-0.4-0.4-0.8-0.8-1.2
		c-0.5-0.5-1.1-0.6-1.8-0.3c-0.7,0.4-1,1-0.8,1.8c0.1,0.3,0.2,0.5,0.4,0.8c4.5,8.4,9.1,16.7,13.7,25.1c0.2,0.3,0.4,0.7,0.6,0.9
		c0.5,0.5,1.1,0.5,1.7,0.2C85.6,70.5,85.9,70,85.9,69.5z M77.4,48.9c2.1,3.8,4.1,7.6,6.2,11.4c2.6-2.2,3.3-5.6,1.8-8.3
		C83.8,49.1,80.6,47.8,77.4,48.9z M58,77.1c1.8,3.9,3.6,7.6,5.4,11.4c0.6,1.2,1.6,1.6,2.7,1c1.1-0.5,1.5-1.7,0.8-2.9
		c-2.2-3.6-4.4-7.1-6.7-10.7C59.5,76.4,58.8,76.7,58,77.1z M51.9,73.9c-1.1-2-2.1-3.9-3.1-5.8c-1.8,1.2-2.1,2.7-1.2,4.5
		C48.5,74.3,49.9,74.7,51.9,73.9z M62.1,75c0.8,1.3,1.6,2.5,2.3,3.7c0.5-0.4,1.2-0.5,0.9-1.2c-0.6-1.1-1.4-2.2-2.1-3.3
		C62.7,74.5,62.4,74.7,62.1,75z"/>
	<path class="st0" d="M83.6,11.7c11.2,0,22.5,0,33.7,0c4.1,0,6.1,2,6.1,6.2c0,3.9,0,7.8,0,11.7c0,4.1-2.1,6.2-6.1,6.2
		c-22.4,0-44.9,0-67.3,0c-4.1,0-6.2-2-6.2-6.1c0-3.9,0-7.8,0-11.7c0-4.3,1.9-6.2,6.2-6.2C61.2,11.7,72.4,11.7,83.6,11.7z M83.8,33.6
		c11.2,0,22.5,0,33.7,0c2.7,0,3.8-1.1,3.8-3.8c0-4.1,0-8.2,0-12.3c0-2.5-1.2-3.7-3.7-3.7c-22.6,0-45.3,0-67.9,0
		c-2.6,0-3.8,1.2-3.8,3.8c0,3.9,0,7.8,0,11.7c0,3.2,1,4.2,4.2,4.2C61.4,33.6,72.6,33.6,83.8,33.6z"/>
	<path class="st0" d="M94.4,98.2c0-3.1,0-6.1,0-9.2c0-4.1,2.5-6.6,6.6-6.6c5.4,0,10.8,0,16.2,0c3.9,0,6.5,2.5,6.5,6.4
		c0,6.3,0.1,12.5,0,18.8c0,3.9-2.6,6.4-6.5,6.4c-5.4,0-10.8,0-16.2,0c-4,0-6.5-2.5-6.6-6.5C94.4,104.4,94.4,101.3,94.4,98.2z
		 M121.6,107c0-5.9,0-11.7,0.1-17.6c0-3.4-1.5-4.9-4.9-4.9c-3.2,0-6.4,0-9.6,0c-2.1,0-4.1,0-6.2,0c-2.6,0.1-4.3,1.6-4.3,4
		c0,6.2,0,12.3,0,18.5c-0.2,3.1,1.4,4.8,4.4,4.9c5.4,0,10.7,0,16.1,0C120.2,111.8,121.7,110.1,121.6,107z"/>
	<path class="st0" d="M65,96.5c-6.2,0-12.4,0-18.6,0c-0.4,0-0.8,0-1.1,0c-0.5-0.1-0.8-0.5-0.8-1c0-0.5,0.3-0.9,0.8-1
		c0.5-0.1,0.9-0.1,1.4-0.1c12.3,0,24.6,0,36.8,0c0.1,0,0.2,0,0.3,0c0.9,0,1.9-0.1,1.9,1.1c0,1.1-1,1-1.8,1
		C77.5,96.5,71.3,96.5,65,96.5z"/>
	<path class="st0" d="M65,105.3c-6.2,0-12.3,0-18.5,0c-0.3,0-0.7,0-1,0c-0.6-0.1-1.1-0.4-1.1-1.1c0-0.7,0.5-1,1.1-1c0.3,0,0.7,0,1,0
		c12.3,0,24.6,0,37,0c0.3,0,0.6,0,0.8,0c0.7,0,1.3,0.3,1.3,1c0,0.8-0.6,1.1-1.3,1.1c-3,0-6,0-9,0C71.8,105.3,68.4,105.3,65,105.3z"
		/>
	<path class="st0" d="M65,114c-6.2,0-12.3,0-18.5,0c-0.4,0-0.8,0-1.1,0c-0.6-0.1-0.9-0.5-0.9-1.1c0-0.6,0.4-0.9,1-1
		c0.3-0.1,0.7,0,1,0c12.4,0,24.8,0,37.3,0c0.4,0,0.8,0,1.1,0c0.5,0.1,0.9,0.5,0.9,1c0,0.6-0.3,1-0.9,1.1c-0.4,0.1-0.7,0-1.1,0
		C77.4,114,71.2,114,65,114z"/>
	<path class="st0" d="M109,55.3c4.2,0,8.5,0,12.7,0c0.8,0,1.7,0,1.7,1c0,1.1-0.9,1.1-1.7,1.1c-8.5,0-17,0-25.5,0
		c-0.8,0-1.7,0.1-1.7-1c0-1.2,0.9-1.1,1.7-1.1C100.5,55.3,104.8,55.3,109,55.3z"/>
	<path class="st0" d="M109.1,46.6c4.1,0,8.2,0,12.3,0c0.4,0,0.8,0,1.1,0c0.6,0.1,1,0.4,1,1c0,0.6-0.4,1-0.9,1.1c-0.3,0.1-0.7,0-1,0
		c-8.4,0-16.8,0-25.3,0c-0.1,0-0.3,0-0.4,0c-0.7,0-1.4-0.2-1.4-1c0-1,0.7-1.1,1.5-1.1c0.3,0,0.6,0,0.8,0
		C100.9,46.6,105,46.6,109.1,46.6z"/>
	<path class="st0" d="M109,72.8c4.2,0,8.4,0,12.6,0c0.3,0,0.7,0,1,0c0.6,0.1,0.9,0.5,0.9,1c0,0.5-0.3,0.9-0.9,1c-0.3,0-0.7,0-1,0
		c-8.5,0-16.9,0-25.4,0c-0.1,0-0.3,0-0.4,0c-0.7,0-1.4-0.2-1.3-1.1c0-0.9,0.7-1,1.4-1C100.2,72.8,104.6,72.8,109,72.8z"/>
	<path class="st0" d="M108.9,66.1c-4.1,0-8.3,0-12.4,0c-0.3,0-0.7,0-1,0c-0.7,0-1.1-0.4-1-1.1c0-0.7,0.5-1,1.1-1c0.5,0,1,0,1.6,0
		c8,0,16.1,0,24.1,0c0.4,0,0.8,0,1.1,0c0.7,0,1.1,0.4,1.1,1.1c0,0.6-0.4,0.9-1,1c-0.4,0-0.8,0-1.1,0
		C117.2,66.1,113.1,66.1,108.9,66.1z"/>
	<path class="st2" d="M79.6,68.5c-5-0.6-9.7,0.3-14.3,1.3c-0.8,0.2-1.2,0-1.6-0.7c-1.4-2.7-2.9-5.4-4.4-8c-0.4-0.8-0.3-1.2,0.3-1.8
		c3.4-3.4,6.6-6.9,8.8-11.3C72.1,54.8,75.8,61.5,79.6,68.5z"/>
	<path class="st3" d="M55.5,60.7c0.8,0.1,1.4,0.4,1.8,1.1c1.5,2.8,3.1,5.6,4.5,8.4c0.6,1.2,0.3,2.2-0.8,2.9c-1.2,0.7-2.5,1.4-3.7,2
		c-1.2,0.6-2.2,0.2-2.8-1c-1.5-2.7-2.9-5.4-4.4-8.2c-0.6-1-0.4-2,0.5-2.6c1.4-1,3-1.7,4.6-2.5C55.2,60.7,55.4,60.7,55.5,60.7z"/>
	<path class="st3" d="M85.9,69.5c0,0.5-0.3,1.1-0.9,1.4c-0.6,0.3-1.2,0.2-1.7-0.2c-0.3-0.3-0.5-0.6-0.6-0.9
		c-4.6-8.4-9.1-16.7-13.7-25.1c-0.1-0.2-0.3-0.5-0.4-0.8c-0.2-0.8,0.1-1.4,0.8-1.8c0.7-0.4,1.3-0.3,1.8,0.3c0.3,0.3,0.5,0.8,0.8,1.2
		c4.4,8.2,8.9,16.3,13.3,24.5C85.6,68.4,85.9,68.8,85.9,69.5z"/>
	<path class="st2" d="M51.9,73.9c-2,0.8-3.4,0.3-4.3-1.3c-1-1.7-0.6-3.2,1.2-4.5C49.8,70.1,50.8,72,51.9,73.9z"/>
	<path class="st2" d="M62.1,75c0.4-0.3,0.7-0.5,1-0.8c0.7,1.1,1.5,2.2,2.1,3.3c0.4,0.7-0.4,0.8-0.9,1.2C63.6,77.5,62.9,76.3,62.1,75
		z"/>
	<path class="st3" d="M83.8,33.6c-11.2,0-22.4,0-33.6,0c-3.2,0-4.2-1-4.2-4.2c0-3.9,0-7.8,0-11.7c0-2.6,1.2-3.8,3.8-3.8
		c22.6,0,45.3,0,67.9,0c2.5,0,3.7,1.2,3.7,3.7c0,4.1,0,8.2,0,12.3c0,2.6-1.1,3.8-3.8,3.8C106.3,33.6,95,33.6,83.8,33.6z M83.7,21.4
		c8.2,0,16.4,0,24.6,0c1.8,0,3.7,0,5.5,0c0.7,0,1.2-0.3,1.2-1.1c0-0.7-0.5-1-1.1-1c-0.3,0-0.7,0-1,0c-19.4,0-38.9,0-58.3,0
		c-0.4,0-0.8,0-1.3,0.1c-0.5,0.1-0.8,0.4-0.9,0.9c0,0.6,0.3,1,0.9,1.1c0.4,0.1,0.8,0,1.1,0C64.2,21.4,73.9,21.4,83.7,21.4z
		 M77.7,28.2c7.8,0,15.6,0,23.4,0c0.9,0,2.1,0.2,2-1.1c0-1.3-1.2-1-2.1-1c-15.5,0-31,0-46.5,0c-0.4,0-0.8,0-1.3,0.1
		c-0.5,0.1-0.9,0.4-0.9,0.9c0,0.6,0.3,1,0.9,1.1c0.4,0.1,0.7,0,1.1,0C62.2,28.2,70,28.2,77.7,28.2z"/>
	<path class="st1" d="M96.6,107c0-6.2-0.1-12.3,0-18.5c0-2.4,1.7-4,4.3-4c2.1-0.1,4.1,0,6.2,0c3.2,0,6.4,0,9.6,0
		c3.4,0,4.9,1.5,4.9,4.9c0,5.9,0,11.7-0.1,17.6c-2,1.9-4.4,1.8-6.8,1.7c-3.8-0.1-7.5-0.1-11.3,0C101,108.7,98.5,108.9,96.6,107z
		 M107.4,89.7c-2.3,0-3.8,1.6-3.8,3.9c0,3,0,5.9,0,8.9c0,1.6,0.6,3,2.1,3.7c1.6,0.8,3,0.4,4.3-0.6c1.8-1.5,3.7-2.9,5.5-4.4
		c2.1-1.8,2.1-4.3,0-6.1c-1.9-1.6-3.8-3.1-5.7-4.6C109.1,90,108.3,89.7,107.4,89.7z"/>
	<path class="st4" d="M96.6,107c2,1.9,4.4,1.8,6.8,1.7c3.8-0.1,7.5-0.1,11.3,0c2.5,0,4.9,0.1,6.8-1.7c0.2,3.1-1.4,4.8-4.4,4.9
		c-5.4,0-10.7,0-16.1,0C98,111.8,96.4,110.1,96.6,107z"/>
	<path class="st0" d="M83.7,21.4c-9.7,0-19.5,0-29.2,0c-0.4,0-0.8,0-1.1,0c-0.6-0.1-0.9-0.4-0.9-1.1c0-0.6,0.3-0.9,0.9-0.9
		c0.4-0.1,0.8-0.1,1.3-0.1c19.4,0,38.9,0,58.3,0c0.3,0,0.7,0,1,0c0.6,0,1.1,0.3,1.1,1c0,0.8-0.5,1.1-1.2,1.1c-1.8,0-3.7,0-5.5,0
		C100,21.4,91.9,21.4,83.7,21.4z"/>
	<path class="st0" d="M77.7,28.2c-7.8,0-15.5,0-23.3,0c-0.4,0-0.8,0-1.1,0c-0.6-0.1-0.9-0.5-0.9-1.1c0-0.6,0.3-0.9,0.9-0.9
		c0.4-0.1,0.8-0.1,1.3-0.1c15.5,0,31,0,46.5,0c0.9,0,2.1-0.3,2.1,1c0,1.3-1.2,1.1-2,1.1C93.3,28.2,85.5,28.2,77.7,28.2z"/>
	<path class="st0" d="M107.4,89.7c0.8,0,1.6,0.3,2.3,0.9c1.9,1.5,3.8,3,5.7,4.6c2.1,1.7,2.1,4.3,0,6.1c-1.8,1.5-3.7,2.9-5.5,4.4
		c-1.3,1.1-2.8,1.4-4.3,0.6c-1.5-0.8-2.1-2.1-2.1-3.7c0-3,0-5.9,0-8.9C103.6,91.3,105.2,89.7,107.4,89.7z M105.8,98.2
		c0,1.5,0,2.9,0,4.4c0,0.8,0.1,1.4,0.9,1.8c0.7,0.3,1.4,0.1,2-0.4c1.8-1.5,3.7-2.9,5.5-4.4c1.1-0.9,1.1-1.9,0-2.8
		c-1.8-1.5-3.7-3-5.6-4.5c-0.5-0.4-1.1-0.7-1.8-0.3c-0.7,0.3-0.9,0.9-0.9,1.6C105.8,95.1,105.8,96.7,105.8,98.2z"/>
</g>
</svg>
