<?xml version="1.0" encoding="utf-8"?>
<!-- Generator: Adobe Illustrator 27.0.0, SVG Export Plug-In . SVG Version: 6.00 Build 0)  -->
<svg version="1.1" id="Layer_1" xmlns="http://www.w3.org/2000/svg" xmlns:xlink="http://www.w3.org/1999/xlink" x="0px" y="0px"
	 viewBox="0 0 140 140" style="enable-background:new 0 0 140 140;" xml:space="preserve">
<g>
	<path d="M56.7,83.8c-0.4,0-0.7,0-1,0c-14.7,0-29.5,0-44.2,0c-4.2,0-7.4-1.8-9.3-5.7c-0.6-1.3-0.9-2.6-0.9-4.1c0-19.4,0-38.8,0-58.2
		c0-5.2,4.3-9.6,9.5-9.7c0.2,0,0.4,0,0.6,0c33.7,0,67.5,0,101.2,0c5.3,0,9.4,3.7,10,9c0,0.3,0,0.6,0,0.9c0,12.7,0,25.4,0,38
		c0,0.9,0,0.9,0.9,0.9c2.1,0,4.1-0.1,6.2,0.1c5.3,0.5,9.1,4.7,9.1,10.1c0,13.1,0.1,26.2,0,39.3c0,5.6-4.3,10-10,10.1
		c-0.6,0-0.8,0.2-0.8,0.8c0,5.4,0,10.8,0,16.2c0,0.2,0,0.4,0,0.6c0,0.7-0.3,1.3-0.9,1.6c-0.6,0.3-1.2,0.2-1.8-0.3
		c-2.3-1.8-4.6-3.6-7-5.4c-5.6-4.4-11.3-8.7-16.9-13.1c-0.3-0.2-0.8-0.4-1.2-0.4c-11.1,0-22.1,0-33.2,0c-4.5,0-8.3-2.6-9.7-6.9
		c-0.4-1-0.5-2.2-0.6-3.3c-0.1-6.6,0-13.2,0-19.7C56.7,84.4,56.7,84.1,56.7,83.8z M124.8,128.9c0-0.5,0-0.8,0-1.1
		c0-4.9,0-9.7,0-14.6c0-1.3,0.6-1.9,1.9-1.9c0.5,0,1.1,0,1.6,0c4.3,0,7.2-3,7.2-7.2c0-12.9,0-25.7,0-38.6c0-4.3-3-7.3-7.3-7.3
		c-20.2,0-40.5,0-60.7,0c-0.3,0-0.6,0-0.8,0c-3.8,0.1-6.7,3.1-6.7,6.9c0,13.1,0,26.1,0,39.2c0,0.3,0,0.7,0.1,1
		c0.6,3.5,3.4,5.9,7,5.9c11.2,0,22.5,0,33.7,0c0.9,0,1.6,0.2,2.3,0.8c6.3,4.9,12.6,9.8,18.9,14.7
		C122.8,127.4,123.7,128.1,124.8,128.9z M8.1,10.1c0.3,0.3,0.6,0.5,0.8,0.7c13.9,11.9,27.9,23.9,41.8,35.8c5.3,4.5,13,5.4,19.1,2.1
		c2.1-1.1,3.8-2.6,5.5-4.1c13.2-11.3,26.5-22.7,39.7-34c0.2-0.1,0.3-0.3,0.5-0.5c-1-0.6-2-0.7-3.1-0.7c-21,0-42,0-63,0
		c-12.8,0-25.5,0-38.3,0C10.2,9.4,9.2,9.6,8.1,10.1z M5.6,12.3c-0.1,0.2-0.2,0.3-0.3,0.5c-0.7,1.2-0.9,2.4-0.9,3.8
		c0,18.8,0,37.6,0,56.5c0,0.5,0,1.1,0.1,1.6c0.1,1.1,0.4,2.1,1.1,3C18.3,66.7,31,55.9,43.7,45C31,34,18.3,23.2,5.6,12.3z M8.1,79.8
		c1.1,0.6,2.2,0.7,3.2,0.7c14.8,0,29.7,0,44.5,0c0.3,0,0.5,0,0.9,0c0-0.3,0-0.6,0-0.8c0-4.7,0-9.5,0-14.2c0-6,4.4-10.4,10.4-10.4
		c6.2,0,12.4,0,18.6,0c0.3,0,0.5,0,0.8,0c0-0.1,0-0.1,0-0.2c-3-2.6-6-5.1-8.9-7.7c-10.5,9.2-20.9,9.2-31.4,0
		C33.5,58,20.9,68.8,8.1,79.8z M118.1,12.3C105.4,23.2,92.7,34.1,80,45c0.2,0.2,0.4,0.3,0.5,0.4c3.6,3.1,7.2,6.1,10.8,9.2
		c0.3,0.3,0.8,0.4,1.2,0.4c8.7,0,17.4,0,26.1,0c0.2,0,0.5,0,0.8,0c0-0.3,0-0.6,0-0.9c0-9.6,0-19.3,0-28.9c0-3,0-6,0-9
		C119.3,14.8,118.9,13.5,118.1,12.3z"/>
	<path d="M112.7,84.7c0-2.7,2.2-4.8,4.8-4.8c2.6,0,4.8,2.2,4.8,4.8c0,2.7-2.1,4.8-4.8,4.8C114.8,89.5,112.7,87.4,112.7,84.7z"/>
	<path d="M78,89.5c-2.7,0-4.8-2.1-4.8-4.8c0-2.7,2.2-4.8,4.8-4.8c2.6,0,4.8,2.2,4.8,4.8C82.8,87.3,80.6,89.5,78,89.5z"/>
	<path d="M102.5,84.8c0,2.7-2.2,4.8-4.9,4.8c-2.6,0-4.8-2.2-4.8-4.8c0-2.6,2.2-4.8,4.8-4.8C100.4,79.9,102.5,82.1,102.5,84.8z"/>
</g>
</svg>
