<?xml version="1.0" encoding="utf-8"?>
<!-- Generator: Adobe Illustrator 27.0.0, SVG Export Plug-In . SVG Version: 6.00 Build 0)  -->
<svg version="1.1" id="Layer_1" xmlns="http://www.w3.org/2000/svg" xmlns:xlink="http://www.w3.org/1999/xlink" x="0px" y="0px"
	 viewBox="0 0 140 140" style="enable-background:new 0 0 140 140;" xml:space="preserve">
<style type="text/css">
	.st0{fill:#249BDA;}
	.st1{fill:#6E5DEF;}
</style>
<g>
	<path class="st0" d="M6.1,67.9c0.8-3,2.8-4.9,5.7-5.9c0.5-0.2,0.9-0.3,1-1c0.9-6.2,2.8-12,5.6-17.5c0.1-0.1,0.1-0.2,0.1-0.5
		c-4.2,0-8.4,0-12.6,0c0-12.5,0-24.8,0-37.3c16.5,0,33,0,49.7,0c0,2.7,0,5.3,0,7.9c2-0.4,3.9-0.8,5.8-1.1c0.8-0.1,0.7-0.8,0.9-1.3
		c1.2-3.2,4.1-5.5,7.4-5.6c3.5-0.1,6.7,1.7,7.9,4.9c0.5,1.4,1.2,2,2.7,2.2c7.2,1.2,13.9,3.8,20.1,7.6c0.2,0.1,0.4,0.2,0.8,0.4
		c0-0.8,0-1.5,0-2.1c0-2.3,0-4.6,0-6.9c0.1-3.4,2.7-6.2,6.2-6.2c6.9,0,13.8,0,20.7,0c3.5,0,6.2,2.7,6.2,6.3c0,12.4,0,24.8,0,37.2
		c0,3.6-2.7,6.3-6.3,6.3c-0.5,0-1,0-1.6,0c0.4,2,0.7,3.9,1,5.7c0.1,0.5,0.4,0.7,0.8,0.8c3,0.9,4.9,2.9,5.8,5.9
		c-1.4,0.5-2.8,0.1-4.2,0.3c-2.2-3.2-5.4-3.2-7.6,0c-1.4-0.2-2.8,0.2-4.2-0.3c0.6-2.4,2.1-4.2,4.3-5.2c0.9-0.4,1.1-0.9,0.9-1.8
		c-0.3-1.5-0.7-2.9-1-4.4c-0.1-0.8-0.5-1-1.3-1c-4.3,0-8.6,0-12.9,0c-4.3,0-6.8-2.6-6.8-6.9c0-7.2,0-14.3,0-21.5
		c0-0.7-0.1-1.2-0.7-1.6c-6.5-4.4-13.6-7.2-21.3-8.6c-0.9-0.2-1.3,0.1-1.8,0.9c-1.5,3-4.1,4.5-7.4,4.5c-3.3,0-5.7-1.7-7.3-4.6
		c-0.2-0.3-0.2-0.7-0.6-1c-1.8,0.2-3.6,0.7-5.3,1c-1,0.2-1.2,0.6-1.2,1.6c0,7.4,0,14.8,0,22.3c0,0.5,0.1,0.9-0.2,1.4
		c-0.4,0-0.9,0-1.4,0c-9.8,0-19.6,0-29.4,0c-0.7,0-1.2,0-1.6,0.7c-3,5.4-5,11.1-6.1,17.2c-0.2,0.9,0.1,1.3,0.9,1.7
		c2.2,1.1,3.6,2.8,4.3,5.2c-0.5,0-1-0.1-1.4,0c-0.9,0.1-1.9-0.4-2.7,0.3c-2.2-3.3-5.5-3.3-7.7-0.1C8.9,67.7,7.5,68,6.1,67.9z
		 M130.1,18.2c-8.3,0-16.5,0-24.7,0c0,8.3,0,16.5,0,24.7c8.3,0,16.5,0,24.7,0C130.1,34.7,130.1,26.5,130.1,18.2z M12.5,9.9
		c0.5,0.6,0.9,1,1.2,1.4c3.6,4,7.2,7.9,10.7,12c2.7,3.1,2.6,3.2,6.6,3.2c0.6,0,1.2,0,1.8,0c0.7,0.1,1.2-0.2,1.7-0.8
		c3.1-3.5,6.2-6.9,9.3-10.4c1.6-1.7,3.1-3.5,4.8-5.4C36.6,9.9,24.7,9.9,12.5,9.9z M46.6,38.9c-2.7-1.8-5.2-3.2-7.5-5
		c-3.3-2.7-6.8-3.8-11-3.3c-0.7,0.1-1.3,0.2-1.9,0.6c-3.1,2.1-6.2,4.1-9.2,6.2c-0.7,0.4-1.5,0.7-2,1.5
		C25.5,38.9,35.8,38.9,46.6,38.9z M37.9,28.2c4.5,3.1,9,5.7,13.3,9.1c0-8.1,0-15.9,0-23.9C46.8,18.3,42.4,23.1,37.9,28.2z
		 M23.3,28.1c-4.5-5-8.9-9.8-13.4-14.8c0,8,0,15.8,0,23.7C14.4,34,18.8,31.1,23.3,28.1z M130.1,13.9c0-0.7,0-1.3,0-1.9
		c-0.1-1.3-0.8-2.1-2.1-2.1c-6.9,0-13.7,0-20.6,0c-1.3,0-2.1,0.8-2.1,2.1c0,0.6-0.1,1.3,0.1,1.9C113.6,13.9,121.8,13.9,130.1,13.9z
		 M105.2,47.2c0,0.7,0,1.4,0,2c0.1,1.3,0.9,2.1,2.2,2.1c6.9,0,13.7,0,20.6,0c1.3,0,2.1-0.8,2.1-2.1c0-0.6,0-1.3,0-2
		C121.8,47.2,113.6,47.2,105.2,47.2z M74.2,14c0-2.3-1.7-4.1-4-4.2c-2.4,0-4.3,1.8-4.3,4.1c0,2.3,1.9,4.2,4.2,4.2
		C72.3,18.1,74.1,16.3,74.2,14z"/>
	<path class="st1" d="M17.9,68.3c0.8-0.7,1.8-0.2,2.7-0.3c0.5-0.1,0.9,0,1.4,0c1,3.7-0.6,7.6-4.2,9.3c-0.9,0.5-1.1,1-0.9,1.9
		c0.4,2.2,0.9,4.3,1.5,6.4c0.2,0.8,0.6,1.1,1.4,1.3c2.6,0.6,4.7,2.1,5.8,4.7c0.6,1.3,1.1,2.5,1.6,3.8c2.2,5.1,1.7,9.8-2,14.1
		c-0.4,0.4-0.4,0.8-0.1,1.3c1,1.6,2.3,2.9,3.9,3.9c0.7,0.4,1.2,0.5,1.9-0.1c2.9-2.5,6.4-3.5,10.2-2.8c2.3,0.4,4.4,1.5,6.6,2.3
		c3,1.1,4.8,3.3,5.5,6.4c0.1,0.6,0.4,0.9,1,1.2c2,0.7,4.1,0.9,6.1,1.5c1.5,0.4,2-0.2,2.7-1.4c1.6-2.8,4.1-4.1,7.3-4
		c3.1,0.1,5.5,1.6,7,4.4c0.5,1,1.1,1.1,2,1c9.4-1.7,17.8-5.6,25.1-11.6c0.6-0.5,0.8-1,1-1.7c1-6.2,4.4-10.2,10.4-12.2
		c0.6-0.2,0.9-0.6,1.2-1.1C120,91,122,85.2,123.1,79c0.1-0.8,0-1.3-0.8-1.7c-3.7-1.8-5.4-5.7-4.3-9.4c1.4,0.5,2.8,0.1,4.2,0.3
		c-0.1,0.3-0.2,0.7-0.3,1c-0.3,1.7,0.5,3.5,2,4.4c1.5,0.9,3.4,0.7,4.7-0.5c1.6-1.4,1.8-3,1.2-4.9c1.4-0.2,2.8,0.2,4.2-0.3
		c1.2,4.2-1.2,8.5-5.5,9.9c-0.8,0.3-1.1,0.7-1.2,1.5c-0.9,5.6-2.5,10.9-5,16c-0.2,0.5-0.5,1-0.7,1.5c0.6,0.5,1.4,0.4,2,0.6
		c6.1,1.6,10.6,7.2,10.7,13.5c0.1,5.7,0.1,11.5,0,17.2c-0.1,3.2-2.7,6.1-6.2,6.1c-3.3,0-6.1-2.7-6.2-6.1c0-0.8,0-1.6,0-2.5
		c-1.4,0.3-2.6,0.4-3.8,0c-2.5-0.8-4.4-3.1-4.4-5.8c0-2.9-0.1-5.8,0-8.7c0.1-3.3,2.9-6,6.2-6c3.3,0,6.2,2.7,6.2,6
		c0.1,5.5,0,11,0,16.5c0,1,0.4,1.8,1.2,2.2c0.7,0.3,1.4,0.2,2.1-0.3c0.7-0.5,0.8-1.3,0.8-2.1c0-5.4,0-10.8,0-16.2
		c0-2.1-0.6-4.1-1.8-5.8c-2.6-3.6-6.9-5.2-11.2-4.1c-4.2,1.1-7.4,4.7-7.6,9.1c-0.2,3.4-0.2,6.8,0,10.2c0.4,5,4.2,8.6,9.4,9.3
		c0.2,0,0.5,0.1,0.8,0.1c0,1.3,0,2.6,0,4.1c-4.7-0.1-8.4-1.9-11.3-5.5c-2.9-3.6-3.4-7.8-3.1-12.5c-1.4,0.6-2.3,1.5-3.4,2.2
		c-6.5,4.2-13.5,7.1-21.2,8.6c-0.1,0-0.2,0-0.3,0c-1.5,0.1-2.4,0.6-3,2.3c-1.1,3.2-4.4,5.1-7.9,4.9c-3.3-0.1-6.3-2.3-7.4-5.6
		c-0.3-1-0.8-1.3-1.8-1.5c-2.5-0.3-5-1-7.5-1.7c-0.5,1-1,1.9-1.4,2.9c-2.6,5.7-6.8,6.5-11.3,5.8c-16.7-2.4-30.1-14.9-33.8-31.4
		c-0.6-2.5-0.9-5-0.4-7.6c0.5-2.7,2.1-4.7,4.5-6c1-0.6,2.1-1.1,3.1-1.6c0.7-0.3,1-0.7,0.7-1.5c-0.7-2.3-1.3-4.7-1.6-7.2
		c-0.1-0.7-0.5-0.9-1.1-1.1c-4.4-1.5-6.8-5.8-5.6-10c1.4,0.1,2.8-0.2,4.2,0.3c-0.1,0.2-0.1,0.5-0.2,0.7c-0.4,1.7,0.3,3.7,1.6,4.4
		c2.2,1.2,4,1,5.5-0.6C18.3,71.4,18.4,69.9,17.9,68.3z M42.1,130.1c2.7,0.2,4.5-1,5.5-3.4c0.4-0.8,0.8-1.6,1.2-2.4
		c1-2.4,0.2-5-2-6.1c-1.9-1-3.9-1.8-6-2.4c-1.1-0.3-2.3-0.3-3.5,0c-2.3,0.4-3.9,1.9-5.4,3.5c-0.5,0.5-0.9,0.7-1.7,0.5
		c-4.7-1.6-7.9-4.7-9.8-9.3c-0.5-1.3-0.3-2.1,0.7-2.9c2.7-2.2,3.8-5.1,2.9-8.5c-0.5-2-1.3-4-2.3-5.9c-1.1-2.1-3.7-2.9-5.9-2
		c-0.8,0.3-1.5,0.8-2.2,1.1c-3.9,1.7-4.2,3.9-3.6,7.2c1.8,11.1,7.5,19.6,16.9,25.6C31.6,127.9,36.6,129.6,42.1,130.1z M74.1,125.9
		c0-2.2-1.9-4.1-4.1-4.1c-2.2,0-4.1,1.8-4.2,4.1c0,2.3,1.9,4.2,4.2,4.2C72.3,130.1,74.1,128.2,74.1,125.9z M121.8,115.6
		c0-1.2,0-2.5,0-3.7c0,0,0-0.1,0-0.1c0-1.4-0.8-2.3-2-2.3c-1.2,0-2.1,0.9-2.1,2.3c0,2.6,0,5.2,0,7.9c0,1.4,0.9,2.3,2.1,2.3
		c1.2,0,2-0.9,2-2.3C121.8,118.1,121.8,116.9,121.8,115.6z"/>
	<path class="st1" d="M96.5,65.6c1.3,7.5-0.3,14.5-4.9,20.5c-7.2,9.2-16.7,12.8-28.1,10c-11.2-2.8-17.9-10.4-20.1-21.8
		c-0.6-2.9-0.6-5.8,0.1-8.7c1.3,0.5,2.7,0.2,4,0.3c0,0.6,0,1.3,0,2c3.3,0,6.7,0,10,0c0.1-0.7,0.2-1.3,0.3-2c1.3,0,2.7,0,4,0
		c0.1,0.6-0.2,1.3,0.1,1.9c5.4,0,10.9,0,16.3,0c0-0.7,0-1.4,0-2c1.3,0,2.7,0,4,0c0.1,0.7,0.2,1.3,0.3,1.9c3.4,0,6.7,0,10.1,0
		c-0.1-0.7-0.1-1.3-0.2-1.9C93.8,65.7,95.2,66,96.5,65.6z M78.2,72.1c-5.5,0-10.9,0-16.5,0c0.1,2.6,0.4,5.1,0.8,7.6
		c0.1,0.6,0.5,0.6,0.9,0.6c4.3,0,8.6,0,13,0c0.5,0,0.8-0.1,0.9-0.6C77.9,77.2,78.1,74.7,78.2,72.1z M81.6,80.3c2.8,0,5.5,0,8.1,0
		c0.4,0,0.7-0.1,0.8-0.5c1.2-2.4,2-4.9,2.1-7.7c-3.4,0-6.8,0-10.2,0C82.2,74.8,82.1,77.5,81.6,80.3z M47.4,72.1
		c0.1,2.8,0.9,5.3,2.1,7.7c0.1,0.3,0.3,0.5,0.7,0.5c2.7,0,5.4,0,8.2,0c-0.5-2.8-0.6-5.5-0.9-8.2C54.1,72.1,50.8,72.1,47.4,72.1z
		 M63.8,84.5c0.9,2.7,1.9,5.3,4,7.2c1.4,1.3,2.9,1.4,4.3,0.1c2.2-2,3.2-4.6,4.1-7.3C72,84.5,68,84.5,63.8,84.5z M52.4,84.5
		c2.8,3.2,5.8,5.4,9.8,6.8c-1.1-2.2-2-4.1-2.6-6.2c-0.1-0.5-0.4-0.7-0.9-0.7C56.7,84.5,54.8,84.5,52.4,84.5z M87.6,84.5
		c-2,0-3.7,0.1-5.3,0c-1.2-0.1-1.9,0.2-2.2,1.5c-0.3,1.5-1,2.8-1.7,4.2c-0.1,0.3-0.6,0.6-0.2,1.1C81.8,89.8,84.8,87.7,87.6,84.5z"/>
	<path class="st0" d="M47.5,65.8c-1.3-0.1-2.7,0.2-4-0.3c1.6-9.2,6.6-15.9,14.9-19.8c9.8-4.6,19.3-3.5,28,3c5.6,4.2,8.9,9.9,10,16.8
		c-1.3,0.5-2.7,0.2-4.1,0.3c-0.4-1.9-0.9-3.7-1.8-5.5c-0.2-0.4-0.3-0.8-0.9-0.8c-2.7,0-5.4,0-8.2,0c0.2,2.2,0.7,4.2,0.6,6.2
		c-1.3,0-2.7,0-4,0c-0.3-2.1-0.3-4.2-0.9-6.2c-4.9,0-9.6,0-14.5,0c-0.6,2.1-0.6,4.2-1,6.2c-1.3,0-2.7,0-4,0
		c-0.1-2.1,0.4-4.1,0.6-6.2c-2.8,0-5.5,0-8.2,0c-0.6,0-0.7,0.4-0.9,0.8C48.5,62.1,48,64,47.5,65.8z M76.1,55.4
		c-0.6-2.5-2-5.3-3.4-6.7c-1.9-2-3.6-2.1-5.5,0c-1.8,1.9-2.7,4.3-3.5,6.8C68,55.4,72,55.4,76.1,55.4z M78,48.8
		c0.9,2.1,1.8,4.1,2.4,6.2c0.1,0.3,0.4,0.4,0.7,0.4c2,0,4.1,0,6.4,0C84.9,52.2,81.8,50.1,78,48.8z M52.4,55.5c2.3,0,4.2,0,6.2,0
		c0.6,0,0.9-0.2,1.1-0.8c0.4-1.5,1.1-3,1.7-4.5c0.2-0.5,0.8-0.8,0.5-1.5C58.2,50.1,55.2,52.3,52.4,55.5z"/>
	<path class="st0" d="M72,38.8c-1.4,0-2.7,0-4,0c0-4.1,0-8.1,0-12.3c1.3,0,2.6,0,4,0C72,30.6,72,34.6,72,38.8z"/>
	<path class="st1" d="M26.5,72c0-1.4,0-2.7,0-4c4.1,0,8.1,0,12.3,0c0,1.3,0,2.6,0,4C34.8,72,30.7,72,26.5,72z"/>
	<path class="st1" d="M101.1,71.9c0-1.3,0-2.6,0-4c4.1,0,8.2,0,12.3,0c0,1.3,0,2.6,0,4C109.4,71.9,105.3,71.9,101.1,71.9z"/>
	<path class="st1" d="M68,101.1c1.4,0,2.6,0,4,0c0,4.1,0,8.1,0,12.3c-1.3,0-2.6,0-4,0C68,109.4,68,105.3,68,101.1z"/>
</g>
</svg>
