<?xml version="1.0" encoding="utf-8"?>
<!-- Generator: Adobe Illustrator 27.0.0, SVG Export Plug-In . SVG Version: 6.00 Build 0)  -->
<svg version="1.1" id="Layer_1" xmlns="http://www.w3.org/2000/svg" xmlns:xlink="http://www.w3.org/1999/xlink" x="0px" y="0px"
	 viewBox="0 0 140 140" style="enable-background:new 0 0 140 140;" xml:space="preserve">
<style type="text/css">
	.st0{fill:#C1C1C1;}
	.st1{fill:#E5E5E5;}
	.st2{fill:#175687;}
	.st3{fill:#FECF27;}
	.st4{fill:#FDFDFD;}
	.st5{fill:#FD8427;}
	.st6{fill:#4D4D4D;}
	.st7{fill:#FE596C;}
	.st8{fill:#02DBAB;}
</style>
<g>
	<path class="st0" d="M102.7,125.2c0.8,0.4,1.7,0.5,2.6,0.5c1.9,0,3.8,0,5.7,0c2.8,0,5,1.9,5.5,4.8c0.5,2.6-1,5.4-3.3,6.5
		c-0.3,0.1-0.7,0.2-0.9,0.5c-20.5,0-40.9,0-61.4,0c-0.1-0.8-1-0.8-1.5-1.2c-1.8-1.3-2.6-4.1-1.9-6.5c0.8-2.5,2.6-3.9,5-4
		c1.2,0,2.3,0.1,3.5,0c1.9-0.2,3.8-0.5,5-2.2c2.7,2.4,5.5,4.7,8.3,7.2c2.6-2.3,5-4.5,7.6-6.6c1.3-1.1,2-2.2,1.6-3.9
		c5.2,0,10.4,0,15.6,0c1,0.9,2,1.8,3,2.8c0.6-0.5,1.2-1,1.7-1.5c0.8,1.6,1.6,3.2,3.6,3.7L102.7,125.2L102.7,125.2z"/>
	<path class="st1" d="M61.1,123.5c-1.3,1.7-3.1,2-5,2.2c-1.1,0.1-2.3,0-3.5,0c-2.4,0-4.3,1.5-5,4c-0.8,2.5,0.1,5.2,1.9,6.5
		c0.5,0.4,1.3,0.4,1.5,1.2c-10.7,0-21.4,0-32,0c-0.2-0.7-0.9-0.7-1.4-1.1c-2-1.5-2.7-3.7-2.3-6c0.4-2.2,1.7-3.7,3.9-4.5
		c0.6-0.2,1.2-0.1,1.8-0.1c2.7-0.1,5.5,0.2,8.2-0.2c3.2-0.5,4.7-3.7,4.6-6c-0.3-3.5-2.6-5.7-5.8-5.7c-6.2,0-12.5,0-18.7,0
		c-3.4,0-5.8-2.5-5.8-5.9c0-3.4,2.5-5.8,5.9-5.8c5.2,0,10.4,0,15.6,0c2.2,0,4.3,0,6.3-1.1c0,2.2,0.1,4.3,0.1,6.5
		c0,0.8,0.3,1.1,1,1.1c0.6,7.2,5.3,11.6,12.6,11.6c5.1,0,10.2,0,15.3,0C60,121.4,59.7,122.7,61.1,123.5z"/>
	<path class="st0" d="M123.5,137.5c-1.2-0.9-2.7-1.4-3.5-2.9c-1.5-2.5-0.8-6,1.6-7.8c2.3-1.7,6-1.3,8,0.9c2,2.3,1.9,5.7-0.2,7.9
		c-0.8,0.9-1.9,1.4-3,1.9C125.5,137.5,124.5,137.5,123.5,137.5z"/>
	<path class="st2" d="M32.3,108.6c-0.7,0-1-0.3-1-1.1c0-2.2,0-4.3-0.1-6.5c0.2-3.3,0.2-6.6,0-9.9c0.2-4.6,1.3-8.9,3.9-12.8
		c3.5-4.8,8-7.9,13.9-9.2c2.3-0.5,4.7-0.4,7.2-0.4c0-2,0-3.9,0-5.8c0-0.4-0.3-0.6-0.5-0.8c-4.2-3.5-5.3-8.2-5.6-13.3
		c-0.3-5.1-0.5-10.3-0.7-15.4c-0.4-11.7,7.7-18.1,17.2-19.2c5.9-0.7,11.4,0.5,16.2,4.3c4.2,3.3,6.3,7.8,6.4,13.1
		c0.1,7.4-0.2,14.8-1.3,22.2c-0.2,1.1-0.5,2.2-0.9,3.2c1.9,0,4.3-1.8,5.5-4.2c-0.3-0.3-0.7-0.1-1-0.2c-0.9,0-1.3-0.5-1.3-1.4
		c0.2-4.8,0.4-9.7,0.7-14.5c0-0.8,0.5-1.1,1.2-1.1c0.4,0,0.9,0,1.3,0c0.8-7.7,0-14.8-7.6-20.4c-4.8-3.5-10.2-4.8-16.1-4.9
		c-6.6-0.1-12.7,1.4-17.9,5.6c-4.4,3.5-6.6,8.1-6.8,13.7c-0.1,1.9,0,3.9,0,5.8c0.1,0.1,0.2,0.1,0.3,0.1c2.3,0,2.4,0,2.5,2.3
		c0.2,4.3,0.4,8.7,0.6,13c0.1,1.1-0.4,1.7-1.5,1.7c-1.3,0-2.7,0.2-4,0.2c-3,0-5.3-1.9-5.7-4.9c-0.3-2.2-0.4-4.5-0.3-6.8
		c0.1-3.1,2.1-4.8,6-5.5c0-1.3,0-2.6,0-3.9C42.5,19.6,50,12.5,59,9.8c9.7-3,19.2-2.3,27.8,3.5c5.9,3.9,8.8,9.6,9,16.6
		c0,1.9,0,3.8,0,5.7c0.4,0,0.7,0.1,0.9,0.1c3.1,0.4,5.2,2.8,5.1,5.9c-0.1,1.7-0.1,3.5-0.2,5.2c-0.2,3.6-2.2,5.6-5.8,5.8
		c-0.5,0-0.8,0.2-1.1,0.6c-1.8,3.5-4.9,5.4-8.6,6.4c-2.3,0.6-3.7,2.5-3.7,4.9c0,1.3,0,2.6,0,4c2,0.2,3.9,0,5.8,0.3
		c6.2,0.9,11.1,4,14.9,8.9c0.2,0.2,0.3,0.4,0.5,0.6c2.1,3.4,3.5,7.1,3.7,11.2c0,0.8,0,1.3-1,1.3c-0.4-0.1-0.8,0.1-1.1-0.2
		c-0.3-12.6-11.1-20.5-21-19.7c-1.3-0.2-2.6,0.1-4-0.2c0-1.9,0-3.7,0-5.6c-6.6,5.9-13.9,7.1-21.9,0.1c0,2,0,3.8,0,5.8
		c-1.4,0-2.7,0-4,0c-1.2-0.1-2.3-0.1-3.5,0.1c-10.5,1.6-17.4,9.7-17.4,20.3c0,5.2,0,10.5,0,15.7c0,0.5,0.1,1-0.1,1.5
		C33,108.5,32.7,108.5,32.3,108.6z M96.6,49.2c-0.2,0.4-0.5,0.8-0.3,1.3c2-0.4,3-1.4,3.1-3.3c0.1-1.9,0.2-3.9,0.3-5.8
		c0-1.6-1-3-2.5-3.4c-1.3-0.3-2.7-0.2-4.1-0.2c-0.2,4.3-0.4,8.4-0.5,12.5c1.1,0.4,1.6,0,1.7-1c0.3-0.9,0.6-1.7,0.9-2.6
		c0.7,0.1,1.3,0.2,1.9,0.4C96.9,47.8,96.8,48.5,96.6,49.2z M87,33.8c0-1,0-2,0-3.1c-0.3-4.3-2-7.9-5.4-10.5
		c-6.2-4.7-13-5.2-20.1-2.5c-5.1,1.9-8.3,5.6-9.5,11c-0.6,2.8-0.2,5.6-0.2,8.3c0,4.9,0.4,9.7,0.9,14.6c0.2,2.1,0.6,4.2,2,5.9
		c2.1,2.6,4.3,5.1,6.8,7.3c0.8,0.7,1.6,1.2,2.5,1.7c5.7,3,13.8,0.3,16.7-5.5c-1.4,0.2-2.7,0.4-4,0.5c-0.7,0.1-1.1,0.3-1.4,1
		c-0.9,1.8-2.8,2.6-4.5,2.2c-1.9-0.4-3.3-2-3.3-4c0-1.9,1.2-3.6,2.9-4.1c1.9-0.6,3.9,0.2,4.9,2c0.4,0.7,0.7,0.8,1.4,0.7
		c1.4-0.3,2.8-0.4,4.2-0.6c3-0.5,4-1.4,4.7-4.3c0.1-0.3,0.1-0.5,0.2-0.8C86.7,47,87.1,40.4,87,33.8z M46.2,50.4
		c-0.2-4.3-0.4-8.4-0.5-12.5c-1.2,0-2.3,0-3.4,0c-1.9,0.1-3.3,1.5-3.3,3.3c0,2.1,0.1,4.2,0.3,6.2c0.2,2,1.6,3.1,3.6,3.1
		C44,50.6,45,50.5,46.2,50.4z M69.6,60.4c-0.1,1.2,0.8,2.2,1.9,2.2c1.1,0,2-0.8,2.1-1.9c0.1-1.1-0.8-2-1.9-2.1
		C70.6,58.5,69.7,59.3,69.6,60.4z"/>
	<path class="st2" d="M99,121.5c-0.6,0.5-1.1,0.9-1.7,1.5c-1-1-2-1.9-3-2.8c-0.8-0.8-1.6-1.7-2.5-2.7c0.8-0.8,1.6-1.5,2.5-2.2
		c0.6-0.5,0.5-1,0.2-1.5c-0.3-0.6-0.3-1.4-1.4-1.3c-1.1,0.1-2.2,0-3.3,0c0-2.7,0-5.2,0-7.7c1.4,0,2.8,0,4.1,0c0.3-0.7,0.6-1.4,1-2.4
		c-1-0.8-2.1-1.7-3.1-2.6c2-2,3.8-3.8,5.7-5.6c0.8,0.9,1.8,2,2.7,3c0.9-0.4,1.6-0.7,2.4-1c0-1.4,0-2.7,0-4.2c1.4,0,2.6,0,3.9,0
		c0.2,0,0.4,0,0.6,0c1,0,2,0,3.1,0c0,1.5,0,2.8,0,4.1c0.1,0.1,0.2,0.2,0.2,0.2c2,0.9,2,0.9,3.5-0.6c0.5-0.5,0.9-1,1.3-1.5
		c1.9,2,3.7,3.8,5.5,5.6c-0.6,0.7-1.4,1.5-2.2,2.4c-1.1,0.6,0,1.2,0,1.8c0.1,0.5,0.3,0.9,1,0.9c1.1,0,2.3,0,3.5,0c0,2.6,0,5.1,0,7.7
		c-1,0-2,0.1-3,0c-1-0.1-1.5,0.3-1.6,1.3c-0.5,0.6-0.5,1,0.1,1.6c0.8,0.7,1.6,1.4,2.2,2.1c-1.9,1.9-3.7,3.7-5.7,5.7
		c-0.4-0.5-1.1-1.2-1.6-1.9c-0.9-1.4-1.9-0.7-2.9-0.3c-0.4,0.2-0.4,0.5-0.4,0.9c0,1.1,0,2.2,0,3.6c-2.5,0-5,0-7.5,0
		c0,0-0.1-0.1-0.1-0.1s-0.1,0-0.1,0c0-1.1-0.1-2.3-0.1-3.4c0-0.6-0.2-0.9-0.7-1.2C100.4,119.8,99.6,120.4,99,121.5z M91.9,106.8
		c0,1.2,0,2.3,0,3.5c1,0,1.9,0,2.9,0c0.4,0,0.8-0.1,0.9,0.5c0.3,1.5,1,2.8,1.9,4.4c-0.9,0.8-1.8,1.6-2.7,2.3
		c0.9,0.9,1.6,1.7,2.6,2.6c0.8-0.9,1.5-1.9,2.3-2.8c0.8,0.4,1.3,0.9,1.9,1c2.7,0.4,3.5,2,3,4.5c0,0.1,0.1,0.1,0.2,0.3
		c1,0,2.1,0.1,3.3-0.1c0-1.3,0-2.4,0-3.6c0.5-0.2,0.9-0.3,1.4-0.4c1.2-0.2,2.2-1.5,3.2-1.3c1,0.2,1.8,1.5,2.6,2.2
		c0.8-0.8,1.6-1.6,2.5-2.6c-0.8-0.7-1.8-1.4-2.7-2.2c0.9-1.5,1.6-2.8,1.8-4.2c0.1-0.5,0.5-0.6,0.9-0.6c1,0,1.9,0,3,0
		c0-1.2,0-2.3,0-3.5c-1,0-1.9,0-2.9,0c-0.5,0-0.9,0-1-0.6c-0.3-1.5-1-2.7-1.9-4.4c0.9-0.7,1.9-1.5,2.7-2.2c-0.9-1-1.6-1.8-2.6-2.8
		c-0.8,1-1.6,2-2.3,3c-1.6-1.1-3.2-1.7-4.8-2.1c0-1.3,0-2.4,0-3.6c-1.2,0-2.3,0-3.5,0c0,1.3,0,2.4,0,3.6c-1.7,0.4-3.2,1-4.9,2.1
		c-0.8-0.9-1.5-1.9-2.1-2.5c-1,0.8-1.8,1.5-2.9,2.4c1,0.8,1.9,1.6,2.8,2.4c-1.1,1.5-1.6,3.1-2,4.7C94.3,106.8,93.1,106.8,91.9,106.8
		z"/>
	<path class="st2" d="M109.9,78.1c-3.1-2.4-5.2-5.4-5.9-9.3c-0.1-0.7-0.5-1.1-1.1-1.4c-2.4-1.6-4.8-3.3-7.4-5.1
		c3.2-1.2,6.1-2.3,9.1-3.4c0.7-0.3,1.2-0.6,1.6-1.3c3.8-5.6,10.5-7.9,17-6c6.2,1.9,10.5,7.7,10.6,14.3c0.1,6.8-4.5,12.7-11.4,14.6
		C117.9,81.6,113.8,80.8,109.9,78.1z M100.2,62.8c1.7,1.2,3.3,2.3,4.9,3.3c0.6,0.4,0.9,0.8,1,1.6c0.9,6.3,6.1,10.9,12.3,11.1
		c6.3,0.2,11.9-4.1,13.2-10.3c1.3-6-2.1-12.2-7.9-14.5c-5.9-2.3-12.5-0.1-15.8,5.3c-0.4,0.6-0.8,1.1-1.6,1.3
		C104.2,61.3,102.3,62,100.2,62.8z"/>
	<path class="st2" d="M4.1,75.1c1.2-2.9,2.2-5.5,3.4-8.1c0.3-0.8,0.3-1.4,0.1-2.2c-2-5.8-1.1-11.2,3.1-15.7c4.3-4.5,9.6-5.9,15.5-4
		c5.8,1.8,9.3,6,10.3,12c0.9,5.5-0.9,10.3-5.3,13.9c-4.4,3.6-9.5,4.4-14.9,2.4c-1.2-0.4-2.1-0.5-3.3-0.2
		C10.1,73.9,7.2,74.4,4.1,75.1z M7.7,72.1c2.2-0.5,4.2-0.9,6.2-1.4c0.8-0.2,1.4-0.1,2.2,0.2c2.2,1.1,4.7,1.5,7.1,1.2
		c7.3-0.9,12.4-7.7,11.2-14.9c-1.2-7.2-8.2-12-15.3-10.5c-7.3,1.5-12.1,8.9-9.8,15.9c0.9,2.8,0.6,4.9-0.6,7.2
		C8.3,70.5,8.1,71.2,7.7,72.1z"/>
	<path class="st1" d="M35.2,78.3c-2.6,3.9-3.7,8.2-3.9,12.8c-3.3-1.6-6.9-1.1-10.3-1c-3.4,0-5.3-2.2-5.7-4.5
		c-0.6-3.4,1.1-6.1,4.1-7.1c0.5-0.2,1-0.2,1.6-0.2C25.7,78.3,30.4,78.3,35.2,78.3z"/>
	<path class="st0" d="M109.9,78.1c3.8,2.6,8,3.5,12.6,2.4c0.1,1.2,0.9,2.3,0.8,3.6c-0.1,3.7-2.2,5.9-5.9,6c-2.5,0-5.1-0.2-7.6,0.2
		c-1.1,0.2-2.1,0.6-2.8,1.5c-0.2,0-0.4,0-0.6,0c0-0.3,0-0.6,0-0.9c1,0.1,1-0.5,1-1.3c-0.2-4.1-1.6-7.8-3.7-11.2
		c1.6,0,3.2-0.1,4.9-0.1C109,78.3,109.5,78.5,109.9,78.1z"/>
	<path class="st0" d="M118.3,113.7c0.1-0.9,0.6-1.4,1.6-1.3c1,0.1,1.9,0,3,0c0-2.6,0-5.1,0-7.7c-1.2,0-2.3,0-3.5,0
		c-0.6,0-0.9-0.3-1-0.9c-0.1-0.6-1.1-1.2,0-1.8c3.7,0,7.5,0,11.2,0c3.3,0,5.7,2.5,5.7,5.9c0,3.3-2.4,5.8-5.6,5.8
		C125.9,113.7,122.1,113.9,118.3,113.7z"/>
	<path class="st2" d="M124,12.1c0,0.7,0,1.3,0,2c-7.2,0-14.5,0-21.8,0c-0.2-0.6-0.1-1.2,0-2C109.5,12.1,116.7,12.1,124,12.1z"/>
	<path class="st2" d="M102.2,18.9c0-0.7,0-1.3,0-2c7.3,0,14.5,0,21.7,0c0.2,0.6,0.1,1.2,0.1,2C116.8,18.9,109.6,18.9,102.2,18.9z"/>
	<path class="st2" d="M9.1,23.7c0-0.7,0-1.3,0-1.9c7.3,0,14.5,0,21.8,0c0,0.6,0,1.2,0,1.9C23.6,23.7,16.4,23.7,9.1,23.7z"/>
	<path class="st2" d="M9.1,28.5c0-0.7,0-1.3,0-2c7.2,0,14.4,0,21.7,0c0.3,0.6,0.1,1.2,0.1,2C23.6,28.5,16.4,28.5,9.1,28.5z"/>
	<path class="st2" d="M22.4,95.7c0,2.2-1.7,4-3.9,4c-2.2,0-4-1.7-4-3.9c0-2.2,1.8-4,4-4C20.6,91.8,22.4,93.5,22.4,95.7z M18.5,93.9
		c-1,0-1.9,0.8-1.8,1.8c0.1,1,0.6,1.7,1.8,1.8c1.1,0.1,1.9-0.7,1.9-1.8C20.3,94.8,19.5,93.9,18.5,93.9z"/>
	<path class="st2" d="M129.6,42.4c-2.2,0-4-1.8-4-4c0-2.2,1.8-4,4-4c2.2,0,4,1.8,4,4C133.6,40.7,131.8,42.4,129.6,42.4z M129.6,40.3
		c1,0,1.9-0.8,1.9-1.8c0-1-0.9-1.9-1.9-1.8c-1.1,0.1-1.7,0.6-1.8,1.7C127.7,39.5,128.5,40.3,129.6,40.3z"/>
	<path class="st2" d="M132.6,97.3c-2.2,0-4-1.8-4-4c0-2.2,1.8-4,4-4c2.2,0,4,1.8,4,4C136.6,95.4,134.7,97.3,132.6,97.3z M132.7,91.4
		c-1-0.1-1.9,0.7-2,1.7c0,1.1,0.6,1.7,1.6,1.9c1,0.2,1.9-0.6,2-1.6C134.5,92.5,133.7,91.5,132.7,91.4z"/>
	<path class="st2" d="M41.1,10.7c0,2.2-1.8,4-4,3.9c-2.2,0-4-1.9-3.9-4c0-2.2,1.8-3.9,4-3.9C39.4,6.7,41.1,8.5,41.1,10.7z M39,10.6
		c0-1.1-0.8-1.8-1.9-1.8c-1,0-1.9,0.9-1.8,1.9c0.1,1.1,0.7,1.7,1.8,1.8C38.1,12.6,39,11.7,39,10.6z"/>
	<path class="st2" d="M113.1,21.7c0,0.7,0,1.3,0,2c-3.6,0-7.2,0-10.8,0c-0.2-0.6-0.1-1.2,0-2C105.8,21.7,109.4,21.7,113.1,21.7z"/>
	<path class="st2" d="M19.8,31.3c0.2,0.6,0.1,1.3,0.1,2c-3.6,0-7.2,0-10.8,0c0-0.6,0-1.2,0-2C12.7,31.3,16.2,31.3,19.8,31.3z"/>
	<path class="st2" d="M131.7,3.9c-0.4,0.4-0.8,0.8-1.4,1.4c-0.4-0.5-0.7-1-1-1.5c0.3-0.3,0.8-0.7,1.4-1.3C131,3,131.3,3.4,131.7,3.9
		z"/>
	<path class="st2" d="M135.2,3.9c-0.3,0.5-0.7,0.9-1.2,1.2c-0.5-0.4-1-0.8-1.4-1.4c0.3-0.5,0.7-0.8,1.1-1.1
		C134.4,2.9,134.7,3.5,135.2,3.9z"/>
	<path class="st2" d="M134.1,6c0.4,0.4,0.8,0.8,1.1,1.1c-0.4,0.6-0.9,1-1.4,1.5c-0.5-0.2-0.8-0.7-1.2-1.1C133,6.9,133.5,6.4,134.1,6
		z"/>
	<path class="st2" d="M129.1,7.1c0.4-0.4,0.8-0.7,1.1-1.1c0.7,0.3,1,0.9,1.5,1.3c-0.3,0.5-0.7,0.9-1.2,1.2
		C130,8.2,129.5,7.8,129.1,7.1z"/>
	<path class="st2" d="M128.3,121.7c0.4-0.5,0.8-0.9,1.2-1.4c0.6,0.5,1,1,1.5,1.5c-0.4,0.4-0.8,0.8-1.2,1.2
		C129.2,122.8,128.8,122.2,128.3,121.7z"/>
	<path class="st2" d="M7,7.4c0.5-0.5,0.9-1,1.3-1.4c0.6,0.2,0.9,0.7,1.3,1.1c-0.2,0.7-0.8,1-1.3,1.5C7.7,8.4,7.4,7.9,7,7.4z"/>
	<path class="st2" d="M6.2,3.7C5.7,4.3,5.3,4.8,4.7,5.1C4.3,4.8,3.9,4.5,3.6,4c0.5-0.4,1-0.8,1.6-1.3C5.5,2.8,5.7,3.3,6.2,3.7z"/>
	<path class="st2" d="M131.8,118.2c0.4-0.4,0.8-0.8,1.2-1.3c0.5,0.6,0.9,1.1,1.4,1.6c-0.3,0.3-0.7,0.7-1.1,1.1
		C132.7,119.3,132.2,118.8,131.8,118.2z"/>
	<path class="st2" d="M8.9,129c0.3-0.5,0.7-0.9,1.2-1.2c0.6,0.3,1,0.8,1.4,1.3c-0.4,0.4-0.8,0.8-1.2,1.3C9.8,130,9.4,129.6,8.9,129z
		"/>
	<path class="st2" d="M5.4,132.5c0.4-0.5,0.7-0.9,1.2-1.2c0.6,0.4,1,0.8,1.4,1.3c-0.4,0.4-0.8,0.8-1.2,1.3
		C6.3,133.4,5.9,133,5.4,132.5z"/>
	<path class="st2" d="M8.2,2.6C8.8,3,9.2,3.4,9.6,4C9.4,4.5,8.9,4.8,8.5,5.1c-0.4-0.5-0.8-1-1.3-1.5C7.3,3.2,7.7,3,8.2,2.6z"/>
	<path class="st2" d="M6.2,7.4C5.8,7.9,5.5,8.3,5,8.6C4.5,8.1,4.1,7.7,3.6,7.2c0.2-0.5,0.7-0.8,1-1.2C5.3,6.3,5.6,6.9,6.2,7.4z"/>
	<path class="st2" d="M6.5,130.4c-0.3-0.4-0.6-0.7-1-1.2c0.3-0.6,0.8-1,1.3-1.4c0.5,0.3,0.9,0.7,1.2,1.1
		C7.5,129.4,7.1,129.8,6.5,130.4z"/>
	<path class="st2" d="M132.9,123.2c-0.4-0.5-0.7-0.9-1.1-1.4c0.4-0.5,0.8-1,1.5-1.4c0.4,0.4,0.7,0.7,1.1,1.1
		C134.1,122.2,133.5,122.6,132.9,123.2z"/>
	<path class="st2" d="M128.3,118.6c0.5-0.6,0.9-1.1,1.3-1.5c0.6,0.3,0.9,0.7,1.3,1.1c-0.3,0.6-0.8,1-1.3,1.5
		C129,119.4,128.8,118.9,128.3,118.6z"/>
	<path class="st2" d="M11.4,132.6c-0.4,0.4-0.8,0.8-1.2,1.3c-0.7-0.2-0.9-0.7-1.3-1.1c0.3-0.7,0.8-1.1,1.4-1.6
		C10.7,131.7,11,132.1,11.4,132.6z"/>
	<path class="st2" d="M10.6,81.7c-0.4,0.4-0.7,0.7-1.1,1.1c-0.7-0.3-1-0.9-1.6-1.5c0.4-0.4,0.8-0.8,1.2-1.1
		C9.6,80.8,10.1,81.2,10.6,81.7z"/>
	<path class="st2" d="M110.8,46.4c0.6,0.5,1.1,0.9,1.7,1.4c-0.5,0.4-0.9,0.8-1.4,1.2c-0.4-0.5-0.8-1-1.2-1.6
		C110,47.2,110.4,46.8,110.8,46.4z"/>
	<path class="st2" d="M5.7,82.9c-0.4-0.4-0.8-0.8-1.2-1.3c0.5-0.4,0.9-0.9,1.5-1.4c0.4,0.4,0.7,0.9,1.2,1.3
		C6.7,81.9,6.2,82.4,5.7,82.9z"/>
	<path class="st2" d="M8.9,86.2c-0.2-0.2-0.6-0.6-0.9-1c0.4-0.6,0.9-1.1,1.5-1.5c0.4,0.4,0.7,0.8,1.2,1.3
		C10.1,85.3,9.6,85.7,8.9,86.2z"/>
	<path class="st2" d="M113.1,47.8c0.5-0.5,1-0.9,1.5-1.4c0.4,0.3,0.8,0.7,1.3,1.2c-0.5,0.5-1,0.9-1.6,1.3
		C113.8,48.8,113.5,48.3,113.1,47.8z"/>
	<path class="st2" d="M7.1,85.2c-0.4,0.3-0.8,0.7-1.3,1.1c-0.4-0.5-0.8-1-1.3-1.5c0.3-0.3,0.7-0.6,1.3-1.1
		C6.2,84.1,6.6,84.6,7.1,85.2z"/>
	<path class="st2" d="M109.8,44.1c0.3-0.3,0.7-0.7,1.2-1.3c0.4,0.4,0.8,0.8,1.3,1.3c-0.5,0.5-1,0.9-1.6,1.4
		C110.5,45.2,110.2,44.7,109.8,44.1z"/>
	<path class="st2" d="M115.7,44.5c-0.3,0.3-0.7,0.7-1.2,1.2c-0.4-0.5-0.8-1-1.3-1.6c0.3-0.3,0.7-0.7,1.1-1.2
		C114.8,43.4,115.2,43.9,115.7,44.5z"/>
	<path class="st3" d="M106.4,90.9c0,0.3,0,0.6,0,0.9c-1.3,0-2.6,0-3.9,0c0,1.5,0,2.8,0,4.2c-0.8,0.3-1.5,0.6-2.4,1
		c-0.9-1-1.8-2-2.7-3c-1.9,1.9-3.7,3.7-5.7,5.6c1,0.8,2,1.7,3.1,2.6c-0.4,0.9-0.7,1.6-1,2.4c-1.3,0-2.7,0-4.1,0c0,2.6,0,5.1,0,7.7
		c1.1,0,2.2,0.1,3.3,0c1.1-0.1,1.1,0.7,1.4,1.3c0.3,0.5,0.4,1-0.2,1.5c-0.9,0.7-1.6,1.5-2.5,2.2c1,1.1,1.8,1.9,2.5,2.7
		c-5.2,0-10.4,0-15.6,0c-0.1-0.3-0.2-0.6-0.2-0.9c-0.7-5.5-1.4-11-2-16.5c-0.9-7.5-1.8-15-2.7-22.6c4.7-1.8,7.8-5.4,10.6-9.3
		c9.9-0.7,20.6,7.2,21,19.7C105.6,91,106.1,90.8,106.4,90.9z"/>
	<path class="st2" d="M73.7,80.2c0.9,7.5,1.8,15,2.7,22.6c0.7,5.5,1.3,11,2,16.5c0,0.3,0.1,0.6,0.2,0.9c0.4,1.7-0.3,2.8-1.6,3.9
		c-2.6,2.1-5,4.4-7.6,6.6c-2.8-2.4-5.5-4.8-8.3-7.2c-1.4-0.8-1.1-2.1-0.9-3.4c0.1-0.9,0.3-1.8,0.4-2.8c1-8.4,2.1-16.7,3.1-25.1
		c0.5-4,0.9-8.1,1.4-12.1c0.1-0.3,0.4-0.3,0.7-0.3c2.4,0,4.9,0,7.3,0C73.3,79.9,73.6,79.9,73.7,80.2z M69.4,127.9
		c2.2-1.9,4.3-3.8,6.5-5.7c0.6-0.5,0.7-1,0.6-1.7c-1.1-8.4-2.1-16.8-3.1-25.2c-0.5-4.4-1.1-8.8-1.6-13.2c-1.6,0-3.1,0-4.7,0
		c-0.6,5-1.2,10-1.8,14.9c-1,8-1.9,15.9-2.9,23.9c0,0.4-0.1,0.7,0.2,1C64.8,123.8,67.1,125.8,69.4,127.9z"/>
	<path class="st4" d="M99,121.5c0.7-1.1,1.4-1.7,2.8-0.9c0.5,0.3,0.8,0.6,0.7,1.2c0,1.1,0,2.3,0.1,3.4
		C100.6,124.7,99.8,123.1,99,121.5z"/>
	<path class="st3" d="M65.1,80.2c-0.5,4-0.9,8.1-1.4,12.1c-1,8.4-2,16.7-3.1,25.1c-0.1,0.9-0.2,1.8-0.4,2.8c-5.1,0-10.2,0-15.3,0
		c-7.3,0-12-4.4-12.6-11.6c0.3,0,0.7-0.1,1-0.1c0.3-0.5,0.1-1,0.1-1.5c0-5.2,0-10.5,0-15.7c0-10.6,7-18.6,17.4-20.3
		c1.1-0.2,2.3-0.2,3.5-0.1c1.5,2.3,3.5,4.3,5.6,6.2C61.5,78.4,63.2,79.5,65.1,80.2z"/>
	<path class="st5" d="M87,33.8c0.1,6.6-0.3,13.2-1.2,19.8c0,0.3-0.1,0.5-0.2,0.8c-0.7,3-1.7,3.8-4.7,4.3c-1.4,0.2-2.8,0.4-4.2,0.6
		c-0.7,0.1-1.1,0-1.4-0.7c-1-1.8-2.9-2.6-4.9-2c-1.8,0.5-3,2.2-2.9,4.1c0,1.9,1.4,3.5,3.3,4c1.8,0.4,3.7-0.5,4.5-2.2
		c0.3-0.6,0.7-0.9,1.4-1c1.3-0.1,2.6-0.3,4-0.5c-3,5.8-11.1,8.5-16.7,5.5c-0.9-0.5-1.8-1-2.5-1.7c-2.5-2.2-4.7-4.7-6.8-7.3
		c-1.4-1.7-1.7-3.8-2-5.9c-0.5-4.9-0.9-9.7-0.9-14.6c3.7-3.3,6.8-7,7.8-12.2c1.5,1.7,2.9,3.3,4.5,4.7C70.9,35.3,78.3,37.8,87,33.8z"
		/>
	<path class="st6" d="M87,33.8c-8.7,4-16.1,1.5-23-4.3c-1.6-1.4-3-3-4.5-4.7c-1,5.2-4.1,8.9-7.8,12.2c0.1-2.8-0.3-5.6,0.2-8.3
		c1.1-5.4,4.4-9.1,9.5-11c7.1-2.7,13.9-2.2,20.1,2.5c3.4,2.6,5.1,6.2,5.4,10.5C87,31.8,87,32.8,87,33.8z"/>
	<path class="st5" d="M65.1,80.2c-1.9-0.7-3.6-1.8-5-3.1c-2.1-1.9-4.1-3.8-5.6-6.2c1.3,0,2.6,0,4,0c0-2,0-3.8,0-5.8
		c8,7,15.3,5.9,21.9-0.1c0,1.9,0,3.8,0,5.6c1.4,0.3,2.7,0,4,0.2c-2.8,3.9-6,7.5-10.6,9.3c-0.1-0.3-0.4-0.4-0.6-0.4
		c-2.4,0-4.9,0-7.3,0C65.4,79.9,65.2,79.9,65.1,80.2z"/>
	<path class="st4" d="M46.2,50.4C45,50.5,44,50.6,43,50.6c-2,0-3.5-1.2-3.6-3.1c-0.2-2.1-0.3-4.2-0.3-6.2c0-1.9,1.4-3.2,3.3-3.3
		c1.1-0.1,2.1,0,3.4,0C45.9,42,46.1,46.1,46.2,50.4z M44.5,39.2c-0.4,0-0.7-0.1-1-0.1c-2.6,0-3.3,0.8-3.1,3.4
		c0.1,1.5,0.1,2.9,0.2,4.4c0.1,1.4,0.8,2.3,2.1,2.3c0.7,0,1.4,0.1,2.2-0.2C44.9,45.8,44.5,42.5,44.5,39.2z"/>
	<path class="st4" d="M94.2,49.3c-0.1,1-0.6,1.4-1.7,1c0.2-4.1,0.3-8.2,0.5-12.5c1.5,0,2.8-0.1,4.1,0.2c1.5,0.4,2.5,1.7,2.5,3.4
		c0,2-0.1,3.9-0.3,5.8c-0.1,1.9-1.1,2.9-3.1,3.3c-0.2-0.5,0.1-0.9,0.3-1.3c1-0.3,1.5-1,1.5-2c0.1-1.9,0.2-3.8,0.3-5.7
		c0-1.5-0.8-2.3-2.3-2.3c-0.6,0-1.1,0-1.9,0c-0.1,3.3-0.2,6.5-0.3,9.7C93.9,49,94.1,49.1,94.2,49.3z"/>
	<path class="st7" d="M94.2,49.3c-0.1-0.1-0.3-0.3-0.3-0.4c0.1-3.2,0.2-6.4,0.3-9.7c0.7,0,1.3,0,1.9,0c1.5,0.1,2.3,0.9,2.3,2.3
		c0,1.9-0.1,3.8-0.3,5.7c-0.1,1-0.5,1.7-1.5,2c0.1-0.7,0.3-1.4,0.4-2.1c-0.7-0.1-1.3-0.2-1.9-0.4C94.8,47.6,94.5,48.4,94.2,49.3z"/>
	<path class="st4" d="M69.6,60.4c0.1-1.1,1-1.9,2.1-1.8c1.1,0.1,1.9,1,1.9,2.1c-0.1,1.1-1,2-2.1,1.9C70.4,62.6,69.5,61.6,69.6,60.4z
		"/>
	<path class="st4" d="M91.9,106.8c1.3,0,2.4,0,3.6,0c0.4-1.6,0.9-3.2,2-4.7c-0.9-0.8-1.8-1.6-2.8-2.4c1.1-0.9,1.9-1.6,2.9-2.4
		c0.5,0.6,1.3,1.6,2.1,2.5c1.7-1.1,3.2-1.7,4.9-2.1c0-1.2,0-2.4,0-3.6c1.2,0,2.3,0,3.5,0c0,1.2,0,2.4,0,3.6c1.7,0.4,3.2,0.9,4.8,2.1
		c0.7-1,1.5-1.9,2.3-3c1,1.1,1.7,1.9,2.6,2.8c-0.9,0.7-1.8,1.5-2.7,2.2c0.9,1.6,1.6,2.9,1.9,4.4c0.1,0.6,0.5,0.6,1,0.6
		c0.9,0,1.9,0,2.9,0c0,1.2,0,2.3,0,3.5c-1,0-2,0-3,0c-0.4,0-0.8,0.1-0.9,0.6c-0.3,1.5-1,2.7-1.8,4.2c0.9,0.7,1.9,1.5,2.7,2.2
		c-1,1-1.7,1.8-2.5,2.6c-0.8-0.7-1.6-2-2.6-2.2c-1-0.2-2,1-3.2,1.3c-0.4,0.1-0.8,0.2-1.4,0.4c0,1.2,0,2.4,0,3.6
		c-1.2,0.2-2.3,0.1-3.3,0.1c-0.1-0.1-0.2-0.2-0.2-0.3c0.4-2.5-0.3-4.1-3-4.5c-0.6-0.1-1.1-0.5-1.9-1c-0.7,0.9-1.5,1.8-2.3,2.8
		c-1-1-1.7-1.7-2.6-2.6c0.9-0.8,1.8-1.6,2.7-2.3c-0.9-1.5-1.6-2.9-1.9-4.4c-0.1-0.5-0.5-0.5-0.9-0.5c-0.9,0-1.9,0-2.9,0
		C91.9,109.1,91.9,108,91.9,106.8z M106.3,99.4c-5.1,0-9.2,4-9.2,9.1c0,5.1,4.1,9.3,9.2,9.3c5,0,9.2-4.1,9.2-9.1
		C115.5,103.5,111.5,99.4,106.3,99.4z"/>
	<path class="st4" d="M100.2,62.8c2.2-0.8,4.1-1.6,6-2.3c0.7-0.3,1.2-0.7,1.6-1.3c3.3-5.4,9.9-7.6,15.8-5.3
		c5.8,2.3,9.2,8.5,7.9,14.5c-1.3,6.2-6.9,10.6-13.2,10.3c-6.2-0.2-11.3-4.8-12.3-11.1c-0.1-0.7-0.4-1.2-1-1.6
		C103.4,65.1,101.9,64,100.2,62.8z M130,66c0.1-6.3-4.9-11.5-11.3-11.6c-6.2-0.1-11.4,5-11.5,11.2c-0.1,6.3,5,11.5,11.2,11.6
		C124.8,77.3,130,72.3,130,66z"/>
	<path class="st4" d="M7.7,72.1c0.4-0.9,0.6-1.6,0.9-2.2c1.2-2.3,1.5-4.4,0.6-7.2c-2.3-7,2.5-14.4,9.8-15.9
		c7.1-1.5,14.2,3.4,15.3,10.5c1.2,7.2-3.9,14-11.2,14.9c-2.5,0.3-4.9,0-7.1-1.2c-0.7-0.4-1.4-0.4-2.2-0.2
		C11.9,71.2,9.9,71.6,7.7,72.1z M21.5,70.9c6.4,0,11.5-5,11.5-11.3c0-6.3-5.1-11.4-11.4-11.4c-6.3,0-11.4,5-11.4,11.3
		C10.1,65.8,15.1,70.9,21.5,70.9z"/>
	<path class="st4" d="M18.5,93.9c1,0,1.8,0.8,1.8,1.9c0,1-0.8,1.8-1.9,1.8c-1.1-0.1-1.7-0.7-1.8-1.8C16.5,94.8,17.5,93.9,18.5,93.9z
		"/>
	<path class="st4" d="M129.6,40.3c-1.1,0-1.8-0.8-1.8-1.9c0.1-1.1,0.7-1.7,1.8-1.7c1-0.1,1.9,0.8,1.9,1.8
		C131.5,39.5,130.6,40.3,129.6,40.3z"/>
	<path class="st4" d="M132.7,91.4c1,0.1,1.8,1,1.7,2c-0.1,1-1.1,1.8-2,1.6c-1.1-0.2-1.6-0.8-1.6-1.9
		C130.8,92.2,131.7,91.4,132.7,91.4z"/>
	<path class="st4" d="M39,10.6c0,1-0.8,1.9-1.8,1.9c-1.1-0.1-1.7-0.7-1.8-1.8c-0.1-1,0.8-1.9,1.8-1.9C38.2,8.8,39,9.6,39,10.6z"/>
	<path class="st4" d="M69.4,127.9c-2.3-2-4.6-4-6.8-6c-0.3-0.3-0.3-0.6-0.2-1c1-8,1.9-15.9,2.9-23.9c0.6-4.9,1.2-9.8,1.8-14.9
		c1.5,0,3.1,0,4.7,0c0.5,4.4,1.1,8.8,1.6,13.2c1,8.4,2,16.8,3.1,25.2c0.1,0.7,0,1.2-0.6,1.7C73.7,124,71.6,125.9,69.4,127.9z
		 M69.4,124.7c1.4-1.2,2.8-2.3,4.1-3.4c0.5-0.4,0.6-0.8,0.5-1.4c-0.7-6.1-1.3-12.2-2-18.3c-0.6-5.5-1.2-11.1-1.9-16.6
		c0-0.4,0-0.9-0.7-1c-0.7-0.1-0.8,0.5-0.8,0.9c-0.1,1.1-0.2,2.2-0.4,3.3c-0.7,6.1-1.4,12.1-2,18.2c-0.5,4.4-1,8.9-1.5,13.3
		c-0.1,0.6-0.1,1.1,0.5,1.5C66.7,122.4,68,123.5,69.4,124.7z"/>
	<path class="st7" d="M44.5,39.2c0.1,3.3,0.5,6.6,0.3,9.9c-0.8,0.3-1.5,0.2-2.2,0.2c-1.3-0.1-2-0.9-2.1-2.3
		c-0.1-1.5-0.1-2.9-0.2-4.4c-0.2-2.6,0.5-3.4,3.1-3.4C43.7,39.1,44,39.2,44.5,39.2z"/>
	<path class="st8" d="M106.3,99.4c5.1,0,9.2,4.1,9.2,9.2c0,5-4.2,9.1-9.2,9.1c-5.1,0-9.2-4.2-9.2-9.3
		C97.1,103.4,101.3,99.3,106.3,99.4z M106.4,101.5c-3.9,0-7.1,3-7.1,6.9c-0.1,4,3,7.2,7,7.2c3.9,0.1,7.1-3.2,7.2-7.1
		C113.4,104.7,110.3,101.5,106.4,101.5z"/>
	<path class="st8" d="M130,66c-0.1,6.3-5.2,11.3-11.6,11.3c-6.3-0.1-11.3-5.3-11.2-11.6c0.1-6.2,5.3-11.3,11.5-11.2
		C125.1,54.5,130.1,59.7,130,66z M119.9,68.2c0-3.7,0-7.2,0-10.8c-0.7,0-1.3-0.2-1.9,0.1c0,3.6,0,7.1,0,10.7
		C118.7,68.2,119.3,68.2,119.9,68.2z M118,71.5c0,0.9,0,1.6,0,2.4c0.7,0.1,1.4,0.2,2-0.1c0.1-0.8,0.1-1.5,0-2.2
		C119.3,71.3,118.7,71.5,118,71.5z"/>
	<path class="st7" d="M21.5,70.9c-6.3,0-11.4-5.1-11.3-11.5c0-6.3,5.1-11.3,11.4-11.3c6.3,0,11.5,5.1,11.4,11.4
		C32.9,65.9,27.8,70.9,21.5,70.9z M18,55.8c0.2-0.6,0.3-1.3,0.8-1.8c1-1,2.1-1.4,3.4-0.9c1.3,0.4,2,1.5,2.1,2.8
		c0.2,1.3-0.4,2.3-1.6,2.9c-2.4,1.3-2.8,2.2-2.3,4.6c0.6,0.1,1.3,0.2,2-0.1c-0.4-1.4,0.3-2.1,1.5-2.7c1.8-0.9,2.7-2.5,2.6-4.6
		c-0.1-2.2-1.2-4-3.4-4.9c-3.5-1.5-7.6,1.6-7,4.7C16.8,55.9,17.4,55.9,18,55.8z M22.3,65.6c-0.7-0.1-1.3-0.1-1.9,0.1
		c-0.2,0.6-0.2,1.2,0.1,1.9c0.7,0.1,1.3,0.2,1.9-0.1C22.5,66.9,22.5,66.3,22.3,65.6z"/>
	<path class="st7" d="M69.4,124.7c-1.4-1.2-2.7-2.3-4.1-3.4c-0.6-0.4-0.6-0.9-0.5-1.5c0.5-4.4,1-8.9,1.5-13.3
		c0.7-6.1,1.4-12.1,2-18.2c0.1-1.1,0.2-2.2,0.4-3.3c0.1-0.5,0.1-1,0.8-0.9c0.6,0.1,0.6,0.5,0.7,1c0.6,5.5,1.2,11.1,1.9,16.6
		c0.7,6.1,1.3,12.2,2,18.3c0.1,0.6,0,1-0.5,1.4C72.1,122.4,70.8,123.5,69.4,124.7z"/>
	<path class="st4" d="M106.4,101.5c3.9,0,7,3.2,7,7c0,3.9-3.3,7.1-7.2,7.1c-3.9-0.1-7-3.3-7-7.2C99.3,104.5,102.5,101.5,106.4,101.5
		z M111.6,108.5c0-2.9-2.3-5.3-5.2-5.3c-2.9,0-5.3,2.3-5.3,5.2c0,3,2.3,5.4,5.3,5.4C109.2,113.8,111.6,111.4,111.6,108.5z"/>
	<path class="st4" d="M119.9,68.2c-0.7,0-1.2,0-1.9,0c0-3.6,0-7.1,0-10.7c0.6-0.3,1.2-0.1,1.9-0.1C119.9,61,119.9,64.5,119.9,68.2z"
		/>
	<path class="st4" d="M118,71.5c0.7,0,1.3-0.1,1.9,0.1c0.2,0.7,0.1,1.5,0,2.2c-0.6,0.3-1.3,0.2-2,0.1C118,73.1,118,72.4,118,71.5z"
		/>
	<path class="st4" d="M18,55.8c-0.6,0.2-1.3,0.2-1.9,0.1c-0.6-3.1,3.5-6.2,7-4.7c2.1,0.9,3.2,2.7,3.4,4.9c0.1,2-0.8,3.6-2.6,4.6
		c-1.2,0.6-1.9,1.3-1.5,2.7c-0.7,0.3-1.4,0.2-2,0.1c-0.5-2.4,0-3.2,2.3-4.6c1.2-0.7,1.8-1.6,1.6-2.9c-0.2-1.3-0.8-2.4-2.1-2.8
		c-1.3-0.5-2.4-0.1-3.4,0.9C18.4,54.5,18.3,55.1,18,55.8z"/>
	<path class="st4" d="M22.3,65.6c0.2,0.7,0.2,1.2,0,1.8c-0.6,0.3-1.3,0.2-1.9,0.1c-0.2-0.6-0.2-1.2-0.1-1.9
		C21,65.5,21.6,65.6,22.3,65.6z"/>
	<path class="st2" d="M111.6,108.5c0,2.9-2.4,5.2-5.3,5.2c-3,0-5.3-2.4-5.3-5.4c0-2.9,2.4-5.2,5.3-5.2
		C109.3,103.3,111.6,105.6,111.6,108.5z M106.4,105.5c-1.8,0-3,1-3.2,2.6c-0.2,1.8,0.8,3,2.7,3.5c2,0.1,3.4-1,3.5-2.8
		C109.5,106.9,108.3,105.6,106.4,105.5z"/>
	<path class="st3" d="M105.9,111.6c-1.9-0.4-2.9-1.6-2.7-3.5c0.2-1.6,1.4-2.7,3.2-2.6C106.4,107.5,106.5,109.6,105.9,111.6z"/>
	<path class="st0" d="M105.9,111.6c0.6-2,0.5-4,0.5-6.1c1.9,0.1,3.1,1.4,3,3.3C109.3,110.6,107.9,111.7,105.9,111.6z"/>
</g>
</svg>
