<?xml version="1.0" encoding="utf-8"?>
<!-- Generator: Adobe Illustrator 27.0.0, SVG Export Plug-In . SVG Version: 6.00 Build 0)  -->
<svg version="1.1" id="Layer_1" xmlns="http://www.w3.org/2000/svg" xmlns:xlink="http://www.w3.org/1999/xlink" x="0px" y="0px"
	 viewBox="0 0 140 140" style="enable-background:new 0 0 140 140;" xml:space="preserve">
<g>
	<path d="M52.5,42.6c-0.1-1.9-0.2-3.7-0.2-5.6c0-0.3,0.2-0.7,0.4-0.7c1.9-0.8,3.9-1.6,5.8-2.4c0.2-0.1,0.7,0.1,0.9,0.3
		c1.8,2,3.6,4,5.4,6c0.3,0.4,0.6,0.5,1.1,0.4c2.7-0.4,5.4-0.4,8.1,0c0.3,0,0.8-0.1,1-0.4c1.8-2,3.6-4,5.4-6c0.4-0.4,0.7-0.6,1.3-0.3
		c1.7,0.7,3.5,1.5,5.2,2.1c0.6,0.2,0.9,0.6,0.8,1.3c-0.2,2.6-0.3,5.2-0.4,7.8c0,0.5,0.1,0.9,0.5,1.2c2.2,1.6,4.1,3.5,5.7,5.7
		c0.3,0.4,0.6,0.6,1.2,0.6c2.7-0.2,5.4-0.3,8-0.4c0.5,0,0.8,0.1,1,0.6c0.8,1.9,1.5,3.7,2.3,5.6c0.2,0.5,0.1,0.7-0.3,1.1
		c-2,1.8-3.9,3.6-5.9,5.3c-0.4,0.4-0.6,0.7-0.5,1.3c0.4,2.7,0.4,5.3,0,8c0,0.3,0.1,0.8,0.4,1c2,1.8,4,3.6,6,5.4
		c0.4,0.4,0.6,0.7,0.3,1.2c-0.8,1.8-1.5,3.6-2.3,5.4c-0.2,0.5-0.5,0.7-1.1,0.6c-2.6-0.2-5.3-0.2-8-0.4c-0.5,0-0.9,0.1-1.2,0.5
		C92,90.1,90,92,87.9,93.7c-0.3,0.2-0.5,0.7-0.5,1c0.1,2.7,0.2,5.4,0.4,8.1c0,0.6-0.2,0.8-0.6,1c-1.8,0.7-3.7,1.5-5.5,2.2
		c-0.5,0.2-0.7,0.1-1.1-0.3c-1.8-2-3.6-4-5.4-6c-0.4-0.4-0.7-0.5-1.2-0.4c-2.7,0.4-5.4,0.4-8.1,0c-0.3,0-0.8,0.1-1,0.4
		c-1.8,2-3.6,4-5.4,6c-0.3,0.4-0.6,0.5-1.1,0.3c-1.8-0.8-3.7-1.5-5.5-2.2c-0.5-0.2-0.6-0.5-0.6-1c0.2-2.6,0.3-5.3,0.4-8
		c0-0.6-0.1-0.9-0.5-1.3c-2.2-1.6-4-3.5-5.7-5.6c-0.2-0.3-0.7-0.5-1.1-0.5c-2.7,0.1-5.4,0.2-8,0.4c-0.5,0-0.8-0.1-1-0.6
		c-0.7-1.8-1.5-3.6-2.3-5.4c-0.2-0.5-0.1-0.9,0.3-1.3c2-1.7,3.9-3.5,5.9-5.3c0.4-0.4,0.6-0.7,0.5-1.3c-0.4-2.7-0.4-5.3,0-8
		c0.1-0.6-0.1-0.9-0.5-1.2c-2-1.8-3.9-3.6-5.9-5.3c-0.4-0.3-0.5-0.6-0.3-1.1c0.8-1.9,1.6-3.7,2.3-5.6c0.2-0.5,0.5-0.6,1-0.5
		c2.7,0.2,5.4,0.3,8,0.4c0.4,0,0.9-0.2,1.1-0.5c1.7-2.2,3.6-4.1,5.8-5.8c0.2-0.2,0.4-0.6,0.4-1c0.1-0.9,0-1.8,0-2.7
		C52.6,42.6,52.6,42.6,52.5,42.6z M50.9,69.9c0,10.7,8.5,19.2,19.2,19.2c10.4,0,19.2-8.7,19-19.5c-0.2-10.3-8.8-18.7-19.2-18.7
		C59.5,51,50.9,59.5,50.9,69.9z"/>
	<path d="M72.9,10.8c2,2.5,3.8,4.9,5.8,7.3c-0.7,0.5-1.3,1-2,1.6c-2.8-3.5-5.6-7.1-8.4-10.6c3.7-3,7.4-6,11.1-9.1
		c0.5,0.7,1.1,1.3,1.6,2c-2.4,2-4.8,3.9-7.3,6c22.5,2.2,39.5,12.7,50.7,32.2c6,10.5,7.9,22.3,7.6,29.7c-0.8,0-1.6,0-2.4,0
		c-0.8-21.1-9.6-37.8-27.2-49.7C93.9,14.6,78.8,9.8,72.9,10.8z"/>
	<path d="M67.1,129.1c-1.9-2.4-3.8-4.8-5.7-7.2c0.7-0.5,1.3-1,2-1.6c2.8,3.6,5.6,7.1,8.4,10.6c-3.7,3-7.4,6.1-11.1,9.1
		c-0.6-0.7-1.1-1.3-1.6-2c2.4-2,4.8-4,7.3-6c-21-2-37.4-11.4-48.8-29C11.2,93,8.2,82,8.1,70.1c0.9,0,1.7,0,2.5,0
		c0.6,19.4,8.3,35.3,23.7,47.2c9.6,7.4,20.6,11.3,32.7,12C67,129.2,67.1,129.2,67.1,129.1z"/>
	<path d="M70.1,53.8c9,0,16.2,7.3,16.2,16.3c0,9-7.3,16.2-16.3,16.2c-8.9,0-16.2-7.3-16.2-16.3C53.8,61,61.1,53.7,70.1,53.8z"/>
</g>
</svg>
